<svg width="98" height="24" xmlns="http://www.w3.org/2000/svg"><path d="M95.517 17.05c1.706-1.9 1.982-4.591 1.177-6.924-.698-2.373-2.29-4.402-4.332-5.756-2.042-1.384-4.458-2.077-6.947-2.41-4.977-.64-10.055.15-14.958 1.505-4.9 1.34-9.584 3.415-14.186 5.694-9.225 4.528-18.507 9.331-28.35 12.704-4.968 1.706-10.298 2.499-15.526 1.98-2.613-.289-5.172-.822-7.634-1.781-1.208-.519-2.374-1.233-3.227-2.254C.67 18.793.189 17.528 0 16.253c.502 2.598 2.563 4.533 4.963 5.296 2.403.775 4.98 1.159 7.509 1.281 5.085.297 10.178-.646 14.906-2.468 9.62-3.646 18.75-8.352 27.986-13.067 4.676-2.246 9.51-4.326 14.606-5.652C75.005.346 80.368-.55 85.658.39c2.599.444 5.26 1.299 7.456 2.912 2.2 1.577 3.908 3.916 4.553 6.552.32 1.295.45 2.696.154 4.037a7.16 7.16 0 01-1.9 3.524c-1.865 1.945-4.576 2.831-7.15 2.715 2.574-.104 5.113-1.183 6.746-3.08z" fill="#104520" fill-rule="evenodd"/></svg>