<svg width="69" height="40" xmlns="http://www.w3.org/2000/svg"><path d="M64.958 14.877c-1.679.9-3.737 1.228-5.671 1.038a10.859 10.859 0 01-2.846-.697c-.85-.366-1.758-.974-2.634-1.448l-5.3-3.04-.09-.051c1.435-.815 2.877-1.61 4.336-2.374 1.392-.7 2.791-1.379 4.222-1.955.711-.286 1.441-.5 2.155-.719l1.052-.158c.355-.045.749.02 1.122.024 1.493.114 3.01.426 4.197 1.249 1.2.762 2.003 2.154 2.07 3.502l.003.06c.112 1.811-.917 3.708-2.616 4.57zm-29.105 1.838c-.525.333-1.04.682-1.564 1.018l-.845-.533c-3.66-2.273-7.34-4.514-11.098-6.635l-.651-.362 9.09-5.489 3.346-2.017 3.63 2.192 8.853 5.346c-3.653 2.057-7.228 4.237-10.76 6.48zm2.291 5.124l1.687 1.095a139.634 139.634 0 00-5.447 3.152l-.276.17a171.177 171.177 0 00-4.266-2.512c-.39-.22-.786-.43-1.178-.647l.07-.048c1.842-1.24 3.707-2.447 5.568-3.657l3.842 2.447zm5.395.868c.473-.21.944-.405 1.394-.544.32-.098.795-.087 1.148.028.345.122.51.322.574.593.07.275-.014.653-.232.92-.422.581-1.114.556-2.098.159a12.64 12.64 0 01-1.56-.76c.26-.127.514-.275.774-.396zM38.722 34.86c-.448 1.796-2.052 3.237-3.882 3.483-1.83.301-3.775-.587-4.741-2.177-.998-1.558-.96-3.715.126-5.228.528-.799 1.257-1.265 2.22-1.854l1.657-1.03c.993.614 1.985 1.232 2.966 1.861 1.471 1.135 2.153 3.16 1.654 4.945zM24.019 24.109c-.71.255-1.233.309-1.615.037-.39-.261-.642-.857-.5-1.247.1-.372.54-.612 1.193-.632.464-.02 1.221.325 1.897.614.262.122.523.266.786.396-.575.321-1.172.622-1.761.832zm-9.278-10.51c-.876.475-1.783 1.082-2.635 1.448-.904.368-1.873.59-2.846.696-1.934.19-3.994-.136-5.673-1.035C1.888 13.845.859 11.95.97 10.136l.002-.06a4.646 4.646 0 011.023-2.645c.606-.76 1.456-1.305 2.4-1.633.942-.335 1.966-.493 3-.508l.777-.016.71.133c.462.045.963.276 1.45.439 3.28 1.261 6.431 3.024 9.548 4.804l-5.14 2.948zm51.348-7.702c-1.408-.994-3.092-1.344-4.7-1.492-.41-.011-.804-.081-1.228-.04l-1.282.17c-.786.227-1.572.45-2.32.74-1.493.579-2.93 1.253-4.355 1.946-1.715.87-3.4 1.783-5.075 2.72l-9.225-5.29-3.597-2.063 1.71-1.03c.88-.511 1.714-1.121 2.7-1.377.96-.274 2.102-.146 2.85.575-.73-.74-1.886-.899-2.866-.64-1.008.236-1.87.836-2.755 1.321l-1.823 1.047-1.52-.872c-.888-.488-1.749-1.089-2.757-1.324-.98-.256-2.136-.1-2.866.639.748-.72 1.89-.845 2.85-.572.986.255 1.82.865 2.7 1.374l1.417.856-3.304 1.894-9.473 5.433c-3.383-1.876-6.756-3.759-10.463-5.135-.533-.17-1.02-.397-1.636-.466-.293-.048-.59-.104-.88-.138l-.836.026c-1.113.032-2.244.214-3.322.613C1.848 5.532.06 7.628.007 10.064c-.118 2.27 1.191 4.444 3.15 5.425 1.934.996 4.086 1.285 6.19 1.066a10.95 10.95 0 003.055-.81c1.009-.47 1.782-1.037 2.685-1.553l5.234-3.158.112-.069c.423.242.845.484 1.268.724a422.47 422.47 0 0111.008 6.688l.3.192c-1.694 1.093-3.39 2.178-5.068 3.297l-.706.471c-.536-.277-1.071-.554-1.628-.808-.767-.29-1.454-.726-2.574-.735-.466.024-.969.1-1.458.371-.482.266-.913.75-1.075 1.316-.32 1.146.209 2.25 1.094 2.872.453.318 1.03.437 1.556.424.522-.034.944-.165 1.352-.307.809-.293 1.53-.67 2.241-1.084l.525-.35c.612.33 1.223.672 1.83 1.014 1.191.684 2.372 1.393 3.547 2.107l-1.018.627c-.866.517-2.005 1.236-2.671 2.267-1.45 2.001-1.518 4.862-.196 6.947 1.271 2.117 3.876 3.328 6.317 2.925 2.457-.344 4.575-2.268 5.166-4.668.656-2.382-.277-5.09-2.243-6.574l-.035-.027-.021-.013c-.792-.503-1.591-.991-2.387-1.482a130.555 130.555 0 015.158-3.008c.186-.103.376-.188.563-.29.777.506 1.633.994 2.523 1.345.546.2 1.106.419 1.86.395.75-.026 1.48-.43 1.918-1.015.447-.576.67-1.335.504-2.113-.144-.792-.832-1.461-1.514-1.666a3.535 3.535 0 00-2.028-.066 14.07 14.07 0 00-1.614.616c-.559.26-1.092.55-1.634.826l-2.385-1.535-3.325-2.098c.34-.22.674-.447 1.015-.666 3.718-2.366 7.462-4.7 11.279-6.888l.349.21 5.233 3.162c.902.514 1.676 1.08 2.684 1.552.975.422 2.007.681 3.056.808 2.103.22 4.258-.07 6.192-1.066 1.954-.98 3.265-3.149 3.15-5.416-.066-1.792-1.034-3.39-2.452-4.349z" fill="#104520" fill-rule="evenodd"/></svg>