<svg width="153" height="16" xmlns="http://www.w3.org/2000/svg" xmlns:xlink="http://www.w3.org/1999/xlink"><defs><path id="a" d="M.177.111h9.667v15.445H.177z"/></defs><g fill="none" fill-rule="evenodd"><path d="M14.067 8.911c-.83.148-1.245.83-1.245 2.044v4.067c-1.392.593-3.177.889-5.355.889-2.356 0-4.222-.763-5.6-2.289C.622 12.244 0 10.541 0 8.511c0-2.163.704-4.007 2.111-5.533C3.667 1.288 5.771.444 8.422.444c1.734 0 3.148.29 4.245.867v4.4a4.042 4.042 0 00-1.711-2.289c-.786-.519-1.697-.778-2.734-.778-1.466 0-2.644.523-3.533 1.567C3.8 5.255 3.356 6.563 3.356 8.133c0 1.541.414 2.838 1.244 3.89.874 1.096 2.008 1.644 3.4 1.644.637 0 1.222-.09 1.756-.267v-2.378c0-1.23-.43-1.933-1.29-2.111h5.6zm14.177 1.778l-.755 4.889H17.31c.726-.163 1.09-1.09 1.09-2.778V3.267c0-1.496-.394-2.326-1.179-2.49h5.445c-.8.149-1.2.978-1.2 2.49v10.266h3.088c.92 0 1.675-.244 2.267-.733.533-.43 1.007-1.133 1.422-2.111m14.424.377l-.734 4.512H31.711c.845-.163 1.266-1.044 1.266-2.645V3.244c0-1.466-.488-2.289-1.466-2.466h10.156V5c-.297-1.481-1.178-2.222-2.645-2.222h-2.889v4.311h2.511c1.023 0 1.608-.385 1.756-1.156v4.311c-.133-.755-.704-1.133-1.711-1.133h-2.556v4.423l3.09-.023c.888 0 1.6-.193 2.133-.578.533-.385.97-1.007 1.31-1.867M60.667.778c-.8.163-1.2.978-1.2 2.444v12.356h-2.315a10.51 10.51 0 00-.512-1.132 17.023 17.023 0 00-1.869-2.796l-4.949-6.033v7.543c0 1.449.46 2.256 1.378 2.418h-5c.77-.163 1.156-.978 1.156-2.445V3.378c0-.711-.32-1.348-.956-1.911a3.53 3.53 0 00-1.067-.69h4.711l7 8.733V3.222c0-1.466-.422-2.281-1.266-2.444h4.889zm14.599 10.288l-.733 4.512H64.311c.844-.163 1.266-1.044 1.266-2.645V3.244c0-1.466-.488-2.289-1.467-2.466h10.156V5c-.296-1.481-1.177-2.222-2.644-2.222h-2.889v4.311h2.51c1.023 0 1.608-.385 1.756-1.156v4.311c-.133-.755-.703-1.133-1.71-1.133h-2.556v4.423l3.089-.023c.889 0 1.6-.193 2.133-.578.534-.385.97-1.007 1.311-1.867m12.622-.711l-2.222-5.724-2.13 5.724h4.352zm6.667 5.223h-6.111c.637-.09.956-.43.956-1.023 0-.118-.127-.525-.378-1.222l-.378-1.044h-5.843l-.378 1.022c-.209.564-.312.956-.312 1.178 0 .652.34 1.015 1.022 1.089h-5.067c.207-.045.422-.163.645-.356.533-.489 1.029-1.326 1.489-2.511L84.888.778h2.623L92.377 12.8c.682 1.689 1.408 2.615 2.178 2.778zM111 8.911c-.83.148-1.245.83-1.245 2.044v4.067c-1.393.593-3.178.889-5.355.889-2.356 0-4.223-.763-5.6-2.289-1.245-1.378-1.867-3.081-1.867-5.111 0-2.163.703-4.007 2.111-5.533 1.556-1.69 3.66-2.534 6.311-2.534 1.733 0 3.148.29 4.245.867v4.4a4.042 4.042 0 00-1.712-2.289c-.785-.519-1.696-.778-2.733-.778-1.467 0-2.644.523-3.533 1.567-.89 1.044-1.334 2.352-1.334 3.922 0 1.541.415 2.838 1.245 3.89.874 1.096 2.007 1.644 3.4 1.644a5.54 5.54 0 001.755-.267v-2.378c0-1.23-.43-1.933-1.288-2.111h5.6zm14.177 1.778l-.755 4.889h-10.178c.726-.163 1.09-1.09 1.09-2.778V3.267c0-1.496-.394-2.326-1.18-2.49h5.445c-.8.149-1.2.978-1.2 2.49v10.266h3.09c.918 0 1.673-.244 2.266-.733.533-.43 1.007-1.133 1.422-2.111m14.423.377l-.734 4.512h-10.222c.844-.163 1.266-1.044 1.266-2.645V3.244c0-1.466-.488-2.289-1.467-2.466H138.6V5c-.296-1.481-1.177-2.222-2.644-2.222h-2.889v4.311h2.51c1.023 0 1.608-.385 1.756-1.156v4.311c-.133-.755-.703-1.133-1.71-1.133h-2.556v4.423l3.089-.023c.889 0 1.6-.193 2.133-.578.534-.385.97-1.007 1.311-1.867" fill="#104520"/><g transform="translate(143.111 .355)"><mask id="b" fill="#fff"><use xlink:href="#a"/></mask><path d="M9.844 11.111c0 1.408-.52 2.511-1.556 3.311-.978.756-2.274 1.134-3.889 1.134-1.66 0-3.066-.37-4.222-1.112v-4.71c.356 1.244.955 2.185 1.8 2.822.726.548 1.563.822 2.51.822.682 0 1.246-.156 1.69-.467.445-.311.667-.726.667-1.244 0-.667-.37-1.267-1.111-1.8-.149-.104-.956-.548-2.423-1.334-.963-.518-1.666-1.022-2.11-1.51-.638-.697-.957-1.527-.957-2.49 0-1.348.479-2.422 1.434-3.222.955-.8 2.189-1.2 3.7-1.2 1.378 0 2.533.333 3.467 1v3.911c-.297-.933-.808-1.637-1.534-2.11-.622-.43-1.34-.645-2.156-.645-.68 0-1.2.155-1.555.466-.356.311-.533.69-.533 1.134 0 .726.585 1.4 1.755 2.022 1.985 1.052 3.074 1.652 3.267 1.8 1.17.889 1.756 2.03 1.756 3.422" fill="#104520" mask="url(#b)"/></g></g></svg>