<svg width="201" height="20" xmlns="http://www.w3.org/2000/svg" xmlns:xlink="http://www.w3.org/1999/xlink"><defs><path id="a" d="M.231.143h12.608V20H.231z"/></defs><g fill="none" fill-rule="evenodd"><path d="M18.095 10.948c-1.067.192-1.6 1.073-1.6 2.644v5.259C14.702 19.617 12.406 20 9.604 20c-3.03 0-5.431-.987-7.204-2.96C.801 15.26 0 13.056 0 10.431c0-2.797.905-5.182 2.716-7.155C4.716 1.092 7.423 0 10.834 0c2.23 0 4.05.374 5.46 1.12v5.69c-.381-1.264-1.115-2.25-2.2-2.96-1.012-.67-2.183-1.005-3.517-1.005-1.887 0-3.402.675-4.545 2.026-1.144 1.35-1.715 3.041-1.715 5.072 0 1.992.533 3.668 1.6 5.028 1.124 1.418 2.583 2.127 4.374 2.127.82 0 1.572-.115 2.258-.345v-3.075c0-1.59-.552-2.5-1.658-2.73h7.204zm19.048 1.808l-.98 6.292h-13.19c.94-.21 1.411-1.402 1.411-3.575V3.203c0-1.925-.509-2.993-1.527-3.203h7.057c-1.037.19-1.556 1.258-1.556 3.203v13.213h4.004c1.19 0 2.17-.314 2.938-.943.69-.554 1.305-1.459 1.843-2.717m18.095.486l-.939 5.806h-13.09c1.081-.21 1.622-1.344 1.622-3.404V3.174c0-1.887-.626-2.946-1.879-3.174h13.006v5.434c-.38-1.906-1.509-2.86-3.387-2.86h-3.7v5.549h3.216c1.31 0 2.058-.496 2.248-1.488v5.548c-.17-.972-.901-1.458-2.19-1.458h-3.273v5.692l3.955-.03c1.139 0 2.05-.247 2.732-.743.683-.495 1.242-1.296 1.68-2.402M79.048 0c-1.044.21-1.566 1.258-1.566 3.146v15.902h-3.018a13.44 13.44 0 00-.668-1.457c-.638-1.2-1.452-2.399-2.438-3.599L64.903 6.23v9.706c0 1.866.599 2.904 1.797 3.113h-6.522c1.005-.21 1.507-1.259 1.507-3.146V3.346c0-.915-.415-1.735-1.247-2.46A4.613 4.613 0 0059.048 0h6.145l9.13 11.239V3.145c0-1.887-.551-2.935-1.652-3.145h6.377zm19.047 13.242l-.939 5.806h-13.09c1.082-.21 1.622-1.344 1.622-3.404V3.174c0-1.887-.626-2.946-1.878-3.174h13.005v5.434c-.38-1.906-1.508-2.86-3.387-2.86H89.73v5.549h3.215c1.31 0 2.059-.496 2.248-1.488v5.548c-.17-.972-.9-1.458-2.19-1.458H89.73v5.692l3.955-.03c1.139 0 2.05-.247 2.732-.743.683-.495 1.242-1.296 1.68-2.402m16.855-.915l-2.951-7.367-2.83 7.367h5.781zm8.858 6.72h-8.119c.846-.114 1.27-.553 1.27-1.315 0-.152-.168-.676-.502-1.573l-.502-1.344h-7.762l-.503 1.315c-.277.726-.414 1.23-.414 1.516 0 .84.452 1.307 1.358 1.402h-6.731c.275-.058.56-.21.856-.458.708-.63 1.367-1.706 1.978-3.232L110.968 0h3.483l6.465 15.473c.906 2.173 1.87 3.365 2.894 3.575zm20.952-8.099c-1.068.192-1.6 1.073-1.6 2.644v5.259c-1.793.766-4.089 1.149-6.89 1.149-3.03 0-5.432-.987-7.204-2.96-1.6-1.781-2.401-3.984-2.401-6.609 0-2.797.905-5.182 2.715-7.155C131.383 1.092 134.09 0 137.501 0c2.23 0 4.05.374 5.46 1.12v5.69c-.381-1.264-1.115-2.25-2.201-2.96-1.011-.67-2.182-1.005-3.516-1.005-1.887 0-3.402.675-4.546 2.026-1.143 1.35-1.715 3.041-1.715 5.072 0 1.992.534 3.668 1.601 5.028 1.124 1.418 2.583 2.127 4.374 2.127.82 0 1.572-.115 2.258-.345v-3.075c0-1.59-.553-2.5-1.658-2.73h7.204zm19.048 1.808l-.98 6.292h-13.19c.94-.21 1.412-1.402 1.412-3.575V3.203c0-1.925-.51-2.993-1.527-3.203h7.056c-1.037.19-1.555 1.258-1.555 3.203v13.213h4.003c1.191 0 2.17-.314 2.938-.943.691-.554 1.306-1.459 1.844-2.717m19.046.486l-.939 5.806h-13.09c1.081-.21 1.622-1.344 1.622-3.404V3.174c0-1.887-.626-2.946-1.879-3.174h13.006v5.434c-.38-1.906-1.509-2.86-3.387-2.86h-3.7v5.549h3.216c1.31 0 2.058-.496 2.248-1.488v5.548c-.17-.972-.9-1.458-2.19-1.458h-3.273v5.692l3.955-.03c1.139 0 2.05-.247 2.732-.743.683-.495 1.242-1.296 1.68-2.402" fill="#104520"/><g transform="translate(187.619)"><mask id="b" fill="#fff"><use xlink:href="#a"/></mask><path d="M12.84 14.286c0 1.81-.677 3.228-2.03 4.257C9.536 19.514 7.845 20 5.739 20c-2.164 0-4-.476-5.507-1.429v-6.057c.464 1.6 1.246 2.81 2.348 3.629.947.704 2.038 1.057 3.275 1.057.888 0 1.623-.2 2.203-.6.58-.4.87-.933.87-1.6 0-.857-.484-1.629-1.45-2.314-.193-.133-1.246-.705-3.159-1.715-1.256-.666-2.174-1.314-2.754-1.942C.733 8.133.317 7.067.317 5.829c0-1.734.624-3.115 1.87-4.143C3.434.657 5.044.143 7.014.143c1.798 0 3.304.428 4.522 1.286v5.028c-.387-1.2-1.053-2.104-2-2.714-.812-.552-1.75-.829-2.812-.829-.889 0-1.564.2-2.029.6C4.23 3.914 4 4.4 4 4.971c0 .934.763 1.8 2.29 2.6 2.589 1.353 4.01 2.124 4.26 2.315 1.527 1.143 2.29 2.61 2.29 4.4" fill="#104520" mask="url(#b)"/></g></g></svg>