<svg width="61" height="63" xmlns="http://www.w3.org/2000/svg" xmlns:xlink="http://www.w3.org/1999/xlink"><defs><path id="a" d="M0 .838h6.56v6.09H0z"/><path id="c" d="M.74.886h30.8V44.25H.74z"/></defs><g fill="none" fill-rule="evenodd"><path d="M44.806 27.988s-.153.396-.435.573c0 0 .376-.488.082-.735-.186-.158-.452-.13-.51-.025-.892 1.6-2.466 2.103-1.556 2.1.407 0 1.93.058 2.286-.386l-1.822.095s2.961-1.378 2.24.167c0 0 1.698-1.203-.285-1.789m5.496-25.881c-.044-.14-.112-.264-.164-.399 0 0 .363.958-.54 2.64-.726 1.352-2.932 4.8-2.932 4.8s.446-.703.93-2.631c.576-2.29.122-3.62.122-3.62s.304.977-.696 2.601a40.578 40.578 0 00-2.359 4.473l-.008-.005c.533-1.378.99-3.14.406-4.714.026.086-.454 2.426-1.224 3.783-1.15 2.027-1.69 4.157-1.69 4.157s.152-1.192.395-2.126c.514-1.966-.147-2.964-.137-3.029 0 0 .157 1.497-.676 2.706-1.122 1.63-.937 3.434-.937 3.434-.183-.737-.19-1.922.022-3.587 0 0-1.861 2.734-1.619 6.657-.435-1.111-.144-3.652-.144-3.652-2.172 2.184-.842 5.491-.842 5.491-1.15-1.27-.588-3.604-.588-3.604-2.64 1.916-.112 4.208-.112 4.208-1.545-.563-1.44-2.486-1.44-2.486-.903.673-1.265 1.496-1.265 1.496.333 1.147 1.74 1.698 1.74 1.698-1.257-.132-2.079-1.472-2.079-1.472-.654.5-.876 1.046-.876 1.046.333.865 1.635 1.246 1.635 1.246-1.247.09-1.788-1.004-1.788-1.004-.628.55-.692 1.27-.692 1.27.262.641 1.52.959 1.52.959-1.084.096-1.698-.7-1.698-.7-.338.458-.224 1.238-.224 1.238.76 3.066 2.84 4.684 2.84 4.684 1.264-.59 3.12-.794 3.12-.794 1.748-4.228 5.697-7.58 5.8-7.667a.991.991 0 00.307-.39c.103-.242.499-1.387.616-1.705a145.594 145.594 0 01.724-1.887 70.125 70.125 0 01.742-1.831 92.273 92.273 0 01.76-1.757c.127-.283.253-.564.381-.845.124-.271.25-.542.376-.814l.363-.775.345-.731a427.201 427.201 0 00.61-1.295l.254-.55a45.342 45.342 0 00.397-.897c.05-.117.098-.236.147-.355l.12-.309c.035-.093.07-.187.103-.28.014-.042.037-.086.047-.129.175-.832.158-1.731-.092-2.547m-8.656 25.989a15.563 15.563 0 011.504-.065c.4.008 1.152-.667-.776-.858-2.259-.223-4.884.074-4.888.075 0 0 .001 0 0 0 1.36-.02 1.768 1.043 4.16.848m-4.159-.849c-.003 0-.007 0 0 0m1.36 1.343c0-.003-.002-.004-.003-.006.03-.01.061-.017.086-.024a.972.972 0 00-.083.03M16.668 45.716c-.316-.326-.58-.702-.858-1.05-.311-.416-.624-.824-.882-1.248-.262-.42-.507-.833-.712-1.24-.21-.403-.387-.795-.547-1.161a17.45 17.45 0 01-.652-1.819c-.132-.449-.187-.714-.187-.714s-.016.27.029.742c.042.471.144 1.145.368 1.933.116.393.248.82.433 1.255.084.22.191.439.291.667.11.223.222.452.355.676l.194.342.212.339c.138.23.302.449.464.672.059.078.12.156.18.231-.886-1.05-4.99-5.888-3.468-12.366 0 0-2.42 3.76-.235 8.216l-.005-.002c-1.001-1.736-1.855-4.282-2.229-7.12-.848-6.434 3.95-9.275 3.85-9.247-5.141 1.467-5.022 7.95-5.016 8.126a39.847 39.847 0 01-.318-2.617s-.01-.267-.02-.426c-.017-.32-.026-.789.01-1.352.017-.283.045-.589.089-.911a12.79 12.79 0 01.447-2.076 13.1 13.1 0 01.376-1.078c.149-.353.305-.705.481-1.04.09-.168.174-.335.272-.494.093-.16.186-.32.288-.47.098-.153.195-.303.3-.443.102-.142.2-.285.305-.413.105-.13.202-.261.306-.38.104-.119.203-.234.301-.344.2-.212.385-.41.56-.573.174-.161.323-.31.455-.42l.414-.349-.451.3c-.147.094-.31.225-.506.367-.194.144-.402.321-.63.513l-.346.313c-.12.109-.234.23-.356.351-.124.12-.24.253-.362.386a8.196 8.196 0 00-.361.42c-.123.144-.238.298-.355.453-.119.154-.229.317-.341.481-.224.328-.43.677-.63 1.03A13.917 13.917 0 006.92 27.43c-.067.265-.111.791-.123 1.108.01-.174-.072-.45-.077-.46a4.644 4.644 0 00-.289-.706 3.059 3.059 0 00-.192-.346 3.076 3.076 0 00-.226-.332 3.386 3.386 0 00-1.228-.933 3.692 3.692 0 00-1.253-.304 4.128 4.128 0 00-.884.036c-.21.03-.327.065-.327.065 3.2.6 4.324 3.38 4.853 5.188l.185.772a35.87 35.87 0 001.127 4.197c-.01-.014-.018-.028-.028-.04l-.036-.045c-2.627-3.574-6.258-1.16-6.258-1.16.403-.087.879-.076 1.291-.081.406-.005.812.023 1.209.103.762.157 1.495.34 2.098.801.598.455 1.275 1.108 1.645 1.704.353.565.727 1.09 1.068 1.66.3.507.607 1.006.88 1.525.014.027.043.073.063.108.266.441.554.87.872 1.279.385.494.854.95 1.32 1.39.243.241.47.45.636.6.342.394.723.79 1.156 1.185-.071-.048-.14-.097-.214-.142a4.358 4.358 0 00-.996-.475 5.96 5.96 0 00-1.756-.282c-.24-.006-.45.01-.619.021-.171.011-.304.032-.395.044-.09.013-.136.023-.138.02 0 0 .012.004.036.008l.102.014c.09.016.22.035.387.062.33.055.8.147 1.331.311a5.436 5.436 0 011.234.546c.076.046.138.09.199.134.065.045.133.092.198.143.264.206.53.44.805.685.275.244.562.496.86.738.3.24 5.106 4.258 11.2 4.983-1.882-.523-7.065-2.301-9.967-5.838" fill="#104520"/><path d="M43.353 45.716c.317-.326.581-.702.857-1.05.313-.416.626-.824.883-1.248a16.591 16.591 0 001.653-3.417c.103-.306.194-.577.257-.803.134-.449.188-.714.188-.714s.017.27-.028.742a10.636 10.636 0 01-.368 1.933c-.116.393-.248.82-.433 1.255-.085.22-.191.439-.291.667-.11.223-.223.452-.355.676-.064.114-.13.227-.196.342l-.21.339c-.139.23-.303.449-.463.672l-.18.231c.884-1.05 4.989-5.888 3.466-12.366 0 0 2.42 3.76.235 8.216l.005-.002c1.002-1.736 1.856-4.282 2.23-7.12.848-6.434-3.952-9.275-3.85-9.247 5.14 1.467 5.022 7.95 5.016 8.126.13-.824.22-1.583.317-2.617 0 0 .01-.267.02-.426.017-.32.027-.789-.01-1.352a13.942 13.942 0 00-.26-1.923 13.147 13.147 0 00-.652-2.142 12.938 12.938 0 00-.48-1.04c-.09-.168-.174-.335-.273-.494a7.775 7.775 0 00-.287-.47c-.099-.153-.195-.303-.3-.443-.102-.142-.198-.285-.305-.413-.106-.13-.202-.261-.306-.38l-.301-.344c-.2-.212-.386-.41-.56-.573-.175-.161-.323-.31-.456-.42l-.414-.349.452.3c.147.094.31.225.506.367.194.144.402.321.63.513l.345.313c.12.109.234.23.357.351.124.12.24.253.361.386.125.133.242.275.361.42.124.144.239.298.355.453.12.154.23.317.341.481.225.328.432.677.63 1.03.19.359.373.722.528 1.091.165.368.299.739.424 1.101.119.364.227.72.31 1.062.067.265.112.791.124 1.108-.01-.174.072-.45.077-.46a4.727 4.727 0 01.706-1.384 3.394 3.394 0 011.228-.933 3.692 3.692 0 011.253-.304c.371-.024.676.005.885.036.209.03.326.065.326.065-3.2.6-4.323 3.38-4.853 5.188l-.184.772c-.288 1.383-.678 2.888-1.128 4.197l.028-.04.036-.045c2.628-3.574 6.257-1.16 6.257-1.16-.401-.087-.878-.076-1.29-.081a5.745 5.745 0 00-1.208.103c-.762.157-1.496.34-2.098.801-.598.455-1.275 1.108-1.645 1.704-.354.565-.728 1.09-1.069 1.66-.3.507-.608 1.006-.88 1.525-.013.027-.043.073-.062.108-.266.441-.554.87-.873 1.279-.384.494-.853.95-1.32 1.39-.242.241-.468.45-.636.6-.342.394-.723.79-1.155 1.185.071-.048.14-.097.214-.142.318-.205.664-.367.996-.475a5.938 5.938 0 011.756-.282c.24-.006.449.01.619.021.17.011.303.032.394.044.091.013.136.023.138.02 0 0-.01.004-.035.008l-.103.014c-.089.016-.22.035-.388.062-.329.055-.799.147-1.33.311a6.56 6.56 0 00-.823.324 5.104 5.104 0 00-.41.222c-.076.046-.138.09-.2.134a4.647 4.647 0 00-.198.143c-.263.206-.528.44-.805.685-.275.244-.561.496-.859.738-.3.24-5.106 4.258-11.2 4.983 1.882-.523 7.063-2.301 9.966-5.838" fill="#104520"/><g transform="translate(0 37.429)"><mask id="b" fill="#fff"><use xlink:href="#a"/></mask><path d="M3.953 6.413c-.188-.284-.508-.329-.959-.134l-1.511.65C1.039 6.507.643 5.891.295 5.082c-.377-.875-.393-1.69-.045-2.446.312-.683.846-1.185 1.6-1.51.803-.346 1.602-.38 2.394-.103.877.307 1.528.953 1.952 1.939.278.644.397 1.215.358 1.715l-1.635.704c.316-.266.508-.6.577-1.002a1.956 1.956 0 00-.15-1.14c-.234-.544-.616-.899-1.147-1.06-.53-.163-1.088-.12-1.672.132-.572.247-.987.608-1.244 1.084-.268.5-.291 1.01-.068 1.526.102.237.23.44.38.61l.884-.381c.458-.197.65-.47.578-.817l.897 2.08z" fill="#104520" mask="url(#b)"/></g><path d="M7.748 50.141l-1.734 1.001-2.579-3.21c.235.187.62.067 1.152-.362l3.007-2.415c.472-.38.634-.713.488-1.002L9.46 45.87c-.248-.215-.611-.13-1.089.252l-3.239 2.601.784.976c.232.29.502.465.805.529.272.058.614.03 1.027-.087m5.102 4.733L11.463 56.1l-3.2-2.62c.306.165.664-.002 1.074-.503l2.484-3.034c.375-.46.433-.84.172-1.148l3.18 2.603-1.082 1.322c.286-.54.201-.997-.259-1.373l-.905-.74-1.103 1.349.786.643c.32.263.602.292.845.087l-1.105 1.352c.152-.272.07-.535-.245-.794l-.8-.656-1.133 1.386.972.784c.278.229.55.35.816.365.266.017.562-.066.89-.248m9.717.305c-.321-.078-.608.152-.86.69l-2.122 4.525-.847-.396a4.36 4.36 0 00.006-.503 6.891 6.891 0 00-.204-1.346l-.777-3.061-1.296 2.765c-.248.53-.22.904.09 1.122l-1.832-.859c.31.072.59-.159.844-.698l1.675-3.573c.122-.26.115-.549-.022-.864a1.4 1.4 0 00-.273-.436l1.726.81 1.064 4.4 1.08-2.303c.253-.537.238-.908-.044-1.113l1.792.84zm6.36 4.996l-.446 1.794-4.122-.342c.346-.038.545-.379.6-1.024l.324-3.907c.048-.592-.12-.94-.51-1.043l4.096.339-.142 1.702c-.07-.607-.4-.935-.991-.984l-1.166-.097-.143 1.738 1.012.085c.412.034.66-.102.747-.408l-.145 1.74c-.028-.31-.246-.482-.652-.516l-1.03-.086-.148 1.784 1.246.094c.358.03.651-.023.879-.161.228-.137.425-.374.591-.708m9.554.947l-2.444.367c.25-.074.356-.23.321-.465-.007-.049-.082-.204-.224-.467l-.215-.396-2.337.352-.09.431c-.05.238-.068.401-.055.49.04.262.198.387.476.375l-2.028.304a.608.608 0 00.236-.18c.184-.228.332-.593.444-1.095l1.16-5.057 1.049-.158 2.67 4.52c.374.634.72.96 1.037.98zm-2.98-1.69l-1.233-2.155-.508 2.417 1.74-.261zm15.95-8.043l1.066 1.695-3.11 2.7c.179-.243.044-.622-.404-1.138l-2.528-2.914c-.397-.456-.737-.605-1.022-.446l1.665-1.445c-.206.257-.108.617.293 1.078l2.724 3.138.943-.82c.28-.243.446-.52.5-.826.048-.272.006-.613-.127-1.022m-6.574 4.041c-.264.215-.276.539-.037.968l.8 1.438c-.376.482-.948.939-1.718 1.368-.833.463-1.643.56-2.43.292-.71-.241-1.267-.722-1.666-1.439-.426-.765-.54-1.556-.343-2.373.218-.902.796-1.614 1.732-2.137.614-.341 1.17-.518 1.671-.529l.867 1.556a1.636 1.636 0 00-1.056-.471c-.38-.03-.752.057-1.118.261-.52.29-.834.706-.942 1.25-.109.544-.008 1.094.301 1.65.303.543.706.921 1.206 1.129a1.68 1.68 0 001.526-.087c.224-.126.413-.273.568-.441l-.47-.841c-.242-.434-.531-.598-.87-.492l1.979-1.102zm11.103-9.367l1.3 1.316-2.437 3.34c.147-.314-.04-.662-.563-1.043l-3.167-2.31c-.48-.35-.865-.387-1.156-.11l2.422-3.318 1.38 1.005c-.555-.256-1.007-.145-1.357.335l-.69.943 1.41 1.03.6-.822c.242-.334.257-.617.04-.848l1.408 1.027c-.278-.136-.538-.04-.777.29l-.61.835 1.446 1.054.729-1.015c.212-.29.319-.57.32-.835 0-.266-.097-.556-.298-.874m3.395-6.457c.533.201.878.554 1.032 1.06.148.479.106 1.023-.123 1.635-.236.629-.576 1.109-1.02 1.441l-1.784-.669c.52.042.963-.051 1.324-.281.311-.196.534-.475.667-.835.097-.258.119-.493.064-.705a.585.585 0 00-.376-.43c-.253-.095-.532-.04-.839.166-.06.04-.344.283-.85.727-.333.292-.625.487-.873.585a1.434 1.434 0 01-1.078.008c-.51-.191-.849-.524-1.016-1.001-.167-.475-.143-1 .071-1.572.197-.522.487-.912.871-1.172l1.482.558c-.395-.021-.735.073-1.017.28a1.51 1.51 0 00-.551.724c-.096.26-.112.477-.043.656.066.18.184.3.352.364.275.102.613-.023 1.015-.378.682-.602 1.064-.93 1.146-.982.503-.316 1.019-.376 1.546-.179m-25.399 6.081c.244-.034.412-.282.675-.25.073.01.173.025.23-.036.048-.05.033-.13.002-.185a.752.752 0 00-.226-.233c-.142-.097-.323-.136-.455-.251-.025-.022-.054-.061-.039-.096.06-.155.543.16.6.19.207.104.818-.11.624-.37-.116-.156-.369-.083-.536-.098-.175-.015-.353-.01-.529-.034-.09-.01-.215-.026-.291-.085-.075-.057.003-.149.067-.167.07-.017.15.002.219.02.05.01.095.028.143.043.141.045.5.16.605 0 .092-.14-.086-.368-.232-.384-.161-.021-.31.085-.47.096a.937.937 0 01-.337-.053.506.506 0 01-.224-.136c-.067-.074-.1-.171-.15-.257-.05-.092-.109-.178-.159-.269a3.297 3.297 0 01-.273-.656c-.214-.675-.263-1.144-.259-1.16-.02.094-.057.39-.413.888-.105.147-.231.275-.344.416-.159.193-.28.452-.28.706a.94.94 0 00.01.118c.003.026.019.097.021.12 0 0 .196-.53.628-.595a.432.432 0 01.423.266c.08.174.158.41.119.603a.479.479 0 01-.133.245c-.197.163-.456.068-.681.044-.192-.022-.544.009-.424.296.088.215.403.409.632.36.128-.03.235-.113.34-.187a.612.612 0 01.582-.083c.143.06.257.192.25.354a.684.684 0 01-.056.237.47.47 0 00-.006.39.331.331 0 00.347.193m-2.322-1.353c-.99.696-.322 1.524-.322 1.524-.172-.727.76-1.01.76-1.01-.425-.179-.438-.514-.438-.514m2.569 1.48s.392.89-.751 1.032c0 0 1.569.16 1.387-1.22 0 0-.348-.124-.636.188" fill="#104520"/><path d="M35 44.988c.73.86-.084 1.506-.084 1.506 1.399-.518.614-1.76.614-1.76-.14.291-.53.254-.53.254m-7.647-.622c-.141-.106-.294-.196-.432-.307-.07-.057-.17-.137-.202-.227-.034-.09.081-.126.145-.106.07.022.128.081.177.13.035.036.064.076.098.114.097.112.339.4.514.32.15-.07.121-.358.005-.45-.127-.102-.31-.092-.452-.166a.933.933 0 01-.256-.223.493.493 0 01-.118-.234c-.018-.097.004-.2.009-.297.003-.105 0-.21.005-.312.011-.24.062-.471.115-.701.052-.226.104-.452.191-.665a1.46 1.46 0 01.314-.483s-.361.364-1.046.606c-.168.056-.345.1-.51.171-.16.07-.31.177-.423.311a.906.906 0 00-.173.315s.446-.346.846-.174a.446.446 0 01.192.184.439.439 0 01.027.278c-.03.185-.085.427-.22.566a.484.484 0 01-.24.135c-.252.033-.422-.184-.6-.324-.151-.118-.468-.279-.519.03-.035.228.128.56.348.637.126.044.26.027.388.02a.62.62 0 01.539.239c.088.127.116.298.023.433a.665.665 0 01-.173.17.476.476 0 00-.21.33.334.334 0 00.193.347c.225.1.5-.021.705.144.057.046.134.112.214.09.067-.016.099-.094.1-.156a.744.744 0 00-.069-.316c-.069-.158-.204-.287-.253-.455-.01-.03-.014-.08.016-.103.135-.099.377.423.41.478.12.2.753.34.725.017-.017-.192-.269-.265-.403-.366m-2.702-1.709c-1.21.067-1.079 1.124-1.079 1.124.238-.709 1.179-.456 1.179-.456-.267-.377-.1-.668-.1-.668m2.039 2.789s-.231-.287-.64-.174c0 0-.137.96-1.184.478 0 0 1.248.965 1.823-.304" fill="#104520"/><path d="M27.145 44.979c.167 1.117-.866 1.235-.866 1.235 1.463.299 1.451-1.171 1.451-1.171-.271.173-.585-.064-.585-.064" fill="#104520"/><g transform="translate(11.886 -.971)"><mask id="d" fill="#fff"><use xlink:href="#c"/></mask><path d="M31.53 29.154c-.085-.029-.427-.055-.472.033-.044.087-.132.337-.498.337-.364 0-.36-.274-.463-.274-.103 0-1.987.29-3.605-.609-.78-.431-2.123-.048-2.69.148-.066.02-.133.039-.198.062-.032.01-.062.025-.093.036.228.229.481.55.524.877.08.585-.45.855-.45.855.158-.325.27-.655.07-.986-.192-.319-.44-.527-.593-.687-1.32-1.151-3.014-3.525-4.015-8.219-.07-.281-.138-.566-.21-.847-.13-.506-.274-1.017-.379-1.528a2.371 2.371 0 00-.218-.658c-.122-.225-.309-.36-.487-.534-.304-.295-.626-.567-.927-.863-.373-.366-.744-.73-1.098-1.114a13.78 13.78 0 01-1.015-1.212l-1.508-1.885S7.612 5.713 5.682.886c0 0-1.086 4.03 4.417 9.897 0 0 2.33 2.707 2.817 3.26l-.006.003c-.532-.48-6.065-5.519-9.256-10.433 0 0-.99 3.548 5.624 8.81l3.363 2.624S3.726 9.029 1.875 6.422c0 0-.032 2.398 3.846 5.407 0 0 4.974 3.427 6.406 4.12 0 0-8.4-3.88-10.96-6.936 0 0-.032 4.007 11.314 8.271 0 0-.155.627.157 1.369.046.11.082.22.131.337a15.657 15.657 0 01-.136-.118c-.15-.13-.323-.275-.42-.444a2.509 2.509 0 01-.275-.646 1.42 1.42 0 01-.032-.383S7.232 15.872.74 11.561c0 0 .273 4.702 10.7 7.31 0 0 .027.594.511 1.261l.063.07c-.384-.244-.755-.664-.792-1.066 0 0-5.273-1.289-8.042-2.834 0 0 1.1 3.528 7.78 4.028 0 0-.081.73.411 1.298-.348-.257-.677-.518-.703-1.029 0 0-2.837-.032-5.815-1.32 0 0 .21 2.591 5.778 2.962 0 0 .036.67.463 1.21-.291-.15-.586-.483-.74-.872 0 0-3.186-.217-4.828-1.232 0 0-.088 2.553 4.95 3.068 0 0 .219.396.707.594-.383.026-.545-.06-.8-.337 0 0-2.35-.09-4.09-.831 0 0 .427 2.794 4.788 2.729 0 0-1.834.402-3.685-.008 0 0 .5 1.891 4.249 1.472 0 0-1.448.515-2.994.387 0 0 .805 1.529 4.2 1.303 0 0-2.115.44-2.888.231 0 0 .603 1.716 4.24 1.2 0 0-1.513.61-3.218.272 0 0 .885 1.806 3.91 1.13 0 0-.289.451-2.38.515 0 0 .787 1.014 3.764.417-.019.005-.05.042-.066.054a3.666 3.666 0 01-.174.12c-.21.131-.434.234-.676.287a4.651 4.651 0 01-.851.097c-.046 0-.09.002-.136 0l-.083-.006-.029-.002-.833-.05s-3.746 1.927-4.682 2.268c-2.54.927-2.866 1.941-2.866 1.941l5.59-2.541s-5.151 3.11-8.128 3.497c0 0 .897 1.352 3.503-.063 2.501-1.359 6.145-3.163 6.528-3.358l-6.47 3.785s1.254.547 3.654-1.127c0 0-.194.45-.774.869 0 0 1.481.177 2.897-1.142 0 0-.214.495-.37.58 0 0 .212.027.342.017.452-.032.874-.186 1.27-.386.408-.208.815-.407 1.253-.547.267-.086.539-.156.813-.21l.03-.006-.03.006c-.153.036-.906.242-1.654.952l.012-.003a5.12 5.12 0 00-.202.194 4.894 4.894 0 00-.93 1.47 7.08 7.08 0 00-.353 1.127s1.071-1.162 2.024-1.334c0 0-1.695.727-2.003 2.869 0 0 .483-.535 1.44-.845.6-.193 1.582-.704 2.462-1.343-.528.476-1.063 1.13-1.24 2.192l4.572-4.766c-.892.993-1.639 2.571-.892 5.608 0 0 .384-1.964 1.147-2.525 0 0-.977 2.137-.59 3.082.006.014.029-.208.109-.446.126-.372.363-.661.62-.954.413-.467.494-1.101.61-1.691.008-.048.023-.095.032-.14a3.597 3.597 0 00.235 1.556c.165-.864.377-1.724.683-2.549a11.14 11.14 0 011.324-2.56c.642-.91 1.606-1.494 2.446-2.199.424-.355.83-.736 1.138-1.2.315-.471.464-1.07.886-1.463.1-.091.196-.188.297-.277.146-.13.575-.446.68-.034.05-.149.307-1.042 1.357-1.17 0 0-.568-.18-.314-.39.253-.21 1.794-1.526 1.644-1.579" fill="#104520" mask="url(#d)"/></g><path fill="#104520" d="M30.373 51.538l1.582-1.55v3.131zm-.724.032l-1.582 1.55v-3.131zm.366-.379l-1.55-1.582h3.131zm.032.725l1.55 1.582h-3.131z"/></g></svg>