<svg width="25" height="24" xmlns="http://www.w3.org/2000/svg"><g stroke="#104520" fill="none" fill-rule="evenodd"><path d="M.5 5h24v5H.5zm12.713-.121h.588c.189 0 .526-.009.961-.035.725-.043 1.45-.12 2.122-.24 1.351-.242 2.301-.63 2.633-1.107.346-.5.003-1.287-1.453-2.478-1.379-1.13-2.674-.333-3.94 1.916a15.27 15.27 0 00-.91 1.944zm-1.284 0l-.061-.154a15.27 15.27 0 00-.85-1.79C9.752.686 8.457-.11 7.078 1.019c-1.456 1.191-1.8 1.979-1.453 2.478.331.478 1.282.865 2.633 1.106.672.12 1.397.198 2.122.241.435.026.772.035.96.035h.589zM2 10h21v13.5H2z"/><path stroke-linecap="square" d="M12.5 4.5v19"/></g></svg>