<svg width="16" height="16" xmlns="http://www.w3.org/2000/svg"><g stroke="#104520" fill="none" fill-rule="evenodd"><path d="M.5 3.5h15v3H.5z"/><path d="M8 9.5V16l.5-.5h-1l.5.5V9.5zm0 0V3l-.5.5h1L8 3v6.5z"/><path d="M8.573 3.186h.294c.125 0 .349-.006.637-.023.481-.029.961-.08 1.407-.16.884-.158 1.505-.41 1.712-.71.205-.296-.009-.787-.956-1.562-.875-.717-1.7-.21-2.526 1.258a10.115 10.115 0 00-.568 1.197zm-1.052 0a10.115 10.115 0 00-.567-1.197C6.127.521 5.303.014 4.427.731c-.947.775-1.16 1.266-.955 1.563.207.299.827.551 1.712.71.445.079.926.13 1.406.159.29.017.513.023.637.023h.294z" stroke-width=".8"/><path d="M1.5 6.5h13v9h-13z"/></g></svg>