<svg width="78" height="80" xmlns="http://www.w3.org/2000/svg"><g fill="#104520" fill-rule="evenodd"><path d="M57.632 36.051s-.197.506-.557.733c0 0 .48-.624.105-.94-.238-.2-.578-.166-.653-.03-1.14 2.044-3.152 2.688-1.99 2.685.521-.002 2.468.073 2.924-.495l-2.33.121s3.787-1.76 2.865.214c0 0 2.171-1.537-.364-2.288M64.66 2.956c-.057-.18-.143-.338-.21-.51 0 0 .463 1.225-.69 3.374-.93 1.732-3.75 6.14-3.75 6.14s.569-.9 1.19-3.364c.735-2.928.155-4.63.155-4.63s.39 1.248-.89 3.326a51.89 51.89 0 00-3.016 5.72l-.01-.006c.681-1.761 1.266-4.015.518-6.027.034.11-.58 3.102-1.566 4.835-1.468 2.594-2.16 5.317-2.16 5.317s.195-1.524.505-2.718c.658-2.516-.189-3.791-.175-3.873 0 0 .201 1.913-.864 3.458-1.437 2.085-1.2 4.392-1.2 4.392-.233-.943-.242-2.458.03-4.587 0 0-2.38 3.497-2.072 8.513-.555-1.42-.183-4.67-.183-4.67-2.777 2.793-1.077 7.023-1.077 7.023-1.472-1.626-.752-4.61-.752-4.61-3.376 2.45-.143 5.382-.143 5.382-1.975-.72-1.842-3.18-1.842-3.18-1.154.86-1.618 1.914-1.618 1.914.426 1.467 2.226 2.17 2.226 2.17-1.607-.169-2.659-1.881-2.659-1.881-.836.64-1.121 1.337-1.121 1.337.428 1.106 2.092 1.595 2.092 1.595-1.595.113-2.287-1.286-2.287-1.286a2.69 2.69 0 00-.884 1.626c.335.818 1.944 1.224 1.944 1.224-1.387.123-2.172-.895-2.172-.895-.432.587-.285 1.584-.285 1.584.971 3.92 3.631 5.99 3.631 5.99 1.615-.756 3.99-1.014 3.99-1.014 2.235-5.408 7.284-9.695 7.416-9.806.175-.145.303-.29.392-.498.132-.31.637-1.774.79-2.182a186.184 186.184 0 01.923-2.413 99.495 99.495 0 01.95-2.34 97.795 97.795 0 01.973-2.249c.16-.36.323-.719.486-1.079.16-.346.318-.693.481-1.04.154-.33.31-.661.463-.992l.442-.935.41-.867c.123-.263.248-.526.37-.789l.326-.704a57.98 57.98 0 00.506-1.145c.064-.151.126-.302.188-.455.05-.131.103-.263.152-.395.046-.119.09-.238.134-.358.018-.054.048-.11.06-.165.224-1.064.203-2.214-.118-3.257M53.59 36.19c.636-.05 1.3-.096 1.922-.084.514.01 1.475-.852-.99-1.097-2.89-.285-6.246.095-6.25.096 1.738-.025 2.26 1.334 5.319 1.085M21.65 58.722c-.405-.418-.743-.898-1.098-1.343-.398-.532-.798-1.053-1.128-1.595a20.23 20.23 0 01-.91-1.586 24.492 24.492 0 01-.7-1.485 22.315 22.315 0 01-.834-2.325c-.169-.576-.239-.915-.239-.915s-.02.346.038.95c.052.603.183 1.464.47 2.471.148.504.317 1.049.554 1.604.107.282.244.563.372.855.141.285.285.577.453.864l.248.437c.091.143.181.288.271.433.177.296.387.574.594.86.075.098.155.199.23.295-1.132-1.341-6.38-7.528-4.434-15.812 0 0-3.094 4.805-.3 10.505l-.007-.002c-1.28-2.22-2.373-5.475-2.85-9.106-1.085-8.227 5.051-11.86 4.924-11.823-6.576 1.876-6.424 10.165-6.416 10.391a51.152 51.152 0 01-.406-3.346s-.013-.343-.025-.546c-.023-.41-.034-1.008.012-1.73.022-.36.057-.751.113-1.164a16.238 16.238 0 01.572-2.655c.135-.462.303-.921.482-1.378.189-.45.389-.9.614-1.33.114-.214.223-.429.348-.631.119-.206.238-.41.368-.602.125-.195.25-.387.384-.566.13-.182.254-.364.39-.529.134-.166.258-.333.392-.485.132-.152.26-.3.384-.44.256-.272.493-.524.716-.734.223-.205.413-.396.582-.535l.53-.448-.578.385c-.187.12-.396.287-.646.469-.248.183-.515.411-.807.657-.142.127-.289.262-.442.4-.152.139-.298.294-.455.449-.159.153-.307.322-.463.493-.159.168-.308.352-.462.538a11.24 11.24 0 00-.453.578c-.152.196-.293.406-.436.615-.287.42-.551.866-.805 1.318a17.797 17.797 0 00-1.614 4.161c-.087.337-.143 1.011-.158 1.416.014-.222-.093-.574-.098-.588a5.89 5.89 0 00-.37-.903 3.83 3.83 0 00-.245-.442 3.822 3.822 0 00-.29-.424 4.323 4.323 0 00-1.57-1.194 4.71 4.71 0 00-1.602-.39 5.437 5.437 0 00-1.13.047 3.53 3.53 0 00-.418.083c4.092.768 5.529 4.323 6.206 6.635l.236.986c.367 1.77.866 3.694 1.44 5.367a.446.446 0 00-.035-.05l-.045-.059c-3.36-4.57-8.003-1.481-8.003-1.481.515-.111 1.123-.099 1.65-.104a7.356 7.356 0 011.546.13c.975.2 1.912.436 2.683 1.025.765.58 1.63 1.417 2.104 2.178.451.724.93 1.395 1.365 2.125.385.648.778 1.284 1.125 1.95l.082.137c.34.564.708 1.111 1.114 1.635.492.631 1.092 1.215 1.688 1.778.311.309.601.575.814.767.437.505.925 1.01 1.478 1.515a7.18 7.18 0 00-.274-.18 5.53 5.53 0 00-1.273-.609 6.774 6.774 0 00-1.214-.28 7.436 7.436 0 00-1.032-.079 7.886 7.886 0 00-.791.026c-.22.015-.39.04-.505.057-.116.017-.175.028-.177.025 0 0 .015.005.046.01.028.005.074.01.132.02l.493.076c.423.073 1.024.188 1.702.4.34.105.696.247 1.054.414.175.085.355.181.524.284.098.059.177.113.254.17.083.06.171.119.254.183.338.263.677.564 1.029.876.352.312.719.634 1.1.943.385.31 6.53 5.445 14.324 6.372-2.408-.667-9.036-2.941-12.747-7.464"/><path d="M55.773 58.722c.405-.418.743-.898 1.097-1.343.4-.532.799-1.053 1.129-1.595.335-.538.647-1.066.91-1.586.268-.516.496-1.017.7-1.485.193-.47.366-.906.502-1.299.132-.392.25-.738.33-1.027.17-.575.24-.914.24-.914s.022.346-.036.95a13.472 13.472 0 01-.47 2.471 14.285 14.285 0 01-.555 1.604c-.108.282-.244.563-.371.855-.142.285-.285.577-.454.864-.082.146-.166.291-.25.437l-.27.433c-.177.296-.387.574-.592.86l-.23.295c1.13-1.341 6.38-7.528 4.434-15.812 0 0 3.093 4.805.298 10.505l.007-.002c1.282-2.22 2.374-5.475 2.853-9.106 1.084-8.227-5.053-11.86-4.924-11.823 6.574 1.876 6.422 10.165 6.414 10.391.166-1.055.283-2.026.405-3.346 0 0 .014-.343.025-.546a15.885 15.885 0 00-.125-2.894c-.05-.414-.13-.846-.22-1.293-.1-.443-.207-.905-.35-1.362a17.226 17.226 0 00-.482-1.378c-.19-.45-.389-.9-.615-1.33-.114-.214-.222-.429-.349-.631a9.943 9.943 0 00-.367-.602c-.126-.195-.249-.387-.383-.566-.131-.182-.254-.364-.39-.529-.135-.166-.26-.333-.391-.485l-.386-.44a18.447 18.447 0 00-.716-.734c-.223-.205-.412-.396-.583-.535l-.53-.448.579.385c.187.12.395.287.647.469.247.183.514.411.806.657.143.127.289.262.441.4.153.139.298.294.456.449.159.153.308.322.463.493.159.168.309.352.46.538.158.182.306.379.454.578.153.196.294.406.436.615.288.42.553.866.805 1.318.243.458.48.923.677 1.395.21.469.38.945.541 1.408.152.465.29.92.398 1.358.085.337.142 1.011.157 1.416-.014-.222.093-.574.099-.588a6.12 6.12 0 01.613-1.345 4.35 4.35 0 01.29-.424 4.327 4.327 0 011.57-1.194 4.704 4.704 0 011.602-.39 5.44 5.44 0 011.132.047c.268.04.416.083.416.083-4.092.768-5.528 4.323-6.204 6.635l-.237.986c-.368 1.77-.866 3.694-1.441 5.367.013-.018.023-.034.036-.05l.044-.059c3.362-4.57 8.002-1.481 8.002-1.481-.513-.111-1.122-.099-1.65-.104a7.352 7.352 0 00-1.544.13c-.975.2-1.913.436-2.683 1.025-.765.58-1.63 1.417-2.104 2.178-.452.724-.93 1.395-1.366 2.125-.384.648-.778 1.284-1.125 1.95-.018.033-.056.093-.08.137a16.61 16.61 0 01-1.116 1.635c-.491.631-1.09 1.215-1.687 1.778-.311.309-.6.575-.815.767-.437.505-.925 1.01-1.476 1.515.09-.062.18-.122.273-.18.407-.264.85-.47 1.273-.609a6.752 6.752 0 011.214-.28 7.41 7.41 0 011.032-.079 7.72 7.72 0 011.295.083c.117.017.176.028.178.025 0 0-.015.005-.045.01s-.075.01-.133.02l-.495.076c-.421.073-1.022.188-1.701.4a8.39 8.39 0 00-1.053.414 6.312 6.312 0 00-.523.284 3.747 3.747 0 00-.256.17c-.082.06-.17.119-.254.183-.337.263-.676.564-1.029.876a33.6 33.6 0 01-1.099.943c-.385.31-6.53 5.445-14.323 6.372 2.407-.667 9.033-2.941 12.745-7.464M5.39 56.326c-.241-.364-.65-.422-1.227-.173l-1.932.83c-.567-.538-1.074-1.325-1.52-2.359-.482-1.12-.502-2.162-.059-3.128.4-.874 1.082-1.517 2.048-1.933 1.026-.442 2.048-.485 3.06-.13 1.122.392 1.954 1.219 2.497 2.478.355.823.507 1.554.458 2.193l-2.092.902c.405-.34.65-.767.737-1.282.086-.48.022-.964-.19-1.457-.3-.698-.789-1.15-1.468-1.357-.678-.208-1.391-.153-2.137.168-.732.317-1.263.778-1.593 1.388-.341.64-.37 1.29-.085 1.952.131.302.293.56.486.78l1.13-.488c.586-.252.831-.601.74-1.045l1.147 2.66m4.852 8.055l-2.216 1.28-3.3-4.106c.301.24.792.088 1.474-.46l3.845-3.09c.604-.486.812-.911.624-1.28l1.763 2.195c-.318-.276-.782-.166-1.393.323l-4.142 3.326 1.002 1.246c.298.37.642.596 1.031.677.346.076.783.039 1.312-.111m6.524 6.053l-1.773 1.566-4.092-3.35c.392.211.85-.003 1.373-.643l3.176-3.88c.48-.588.555-1.075.221-1.468l4.067 3.328-1.384 1.691c.367-.691.257-1.276-.331-1.756l-1.157-.947-1.41 1.726 1.003.823c.41.335.77.373 1.08.112l-1.412 1.727c.195-.347.09-.684-.313-1.015l-1.024-.838-1.449 1.77 1.245 1.004c.356.292.703.448 1.043.468.34.02.718-.086 1.137-.318m12.426.39c-.41-.1-.777.195-1.1.883l-2.712 5.787-1.084-.507a5.52 5.52 0 00.007-.643 8.812 8.812 0 00-.26-1.721l-.994-3.913-1.657 3.534c-.318.678-.28 1.156.115 1.435l-2.342-1.098c.396.092.755-.204 1.078-.892l2.142-4.57c.156-.333.147-.7-.028-1.104a1.79 1.79 0 00-.349-.558l2.208 1.035 1.36 5.627 1.381-2.945c.323-.686.304-1.161-.056-1.423l2.29 1.073m8.135 6.39l-.571 2.294-5.272-.438c.445-.048.698-.484.767-1.31l.415-4.995c.062-.756-.154-1.202-.651-1.334l5.237.434-.18 2.177c-.09-.777-.514-1.196-1.269-1.26l-1.49-.125-.184 2.224 1.294.109c.529.043.845-.13.955-.521l-.183 2.224c-.038-.397-.316-.616-.835-.659l-1.316-.11-.191 2.281 1.594.12c.457.038.832-.03 1.123-.206.292-.175.545-.477.757-.905m12.217 1.211l-3.125.469c.32-.095.455-.292.41-.595-.009-.062-.105-.261-.286-.597l-.275-.506-2.99.45-.115.551c-.062.305-.085.513-.069.628.05.333.253.493.608.478l-2.593.39a.77.77 0 00.301-.232c.237-.291.426-.758.569-1.398l1.483-6.468 1.341-.203 3.414 5.78c.478.811.922 1.228 1.327 1.253m-3.811-2.16l-1.576-2.758-.65 3.093 2.226-.334m20.397-10.287l1.363 2.167-3.977 3.451c.229-.309.057-.794-.517-1.454l-3.234-3.725c-.506-.584-.941-.775-1.305-.572l2.128-1.847c-.262.328-.138.789.376 1.38l3.482 4.012 1.206-1.049c.36-.312.572-.664.638-1.056.063-.348.01-.784-.16-1.307m-8.407 5.168c-.337.275-.353.687-.047 1.236l1.023 1.839c-.48.618-1.213 1.202-2.197 1.75-1.065.592-2.101.718-3.108.374-.908-.31-1.62-.923-2.13-1.84-.545-.979-.69-1.991-.438-3.034.278-1.154 1.017-2.066 2.214-2.734.786-.436 1.498-.661 2.137-.675l1.11 1.988a2.105 2.105 0 00-1.352-.603c-.485-.037-.962.075-1.43.336-.664.37-1.065.902-1.204 1.598-.139.694-.01 1.398.385 2.108.388.696.902 1.178 1.542 1.445.67.275 1.321.239 1.951-.112.287-.162.529-.349.726-.563l-.6-1.075c-.308-.556-.68-.766-1.112-.63l2.53-1.408m14.199-11.979l1.663 1.683-3.117 4.271c.188-.402-.052-.846-.722-1.334l-4.05-2.955c-.611-.448-1.105-.494-1.476-.14l3.096-4.244 1.765 1.288c-.71-.328-1.288-.186-1.735.426l-.882 1.207 1.803 1.316.766-1.05c.311-.426.329-.79.052-1.084l1.801 1.312c-.356-.173-.688-.05-.995.371l-.78 1.069 1.849 1.347.932-1.297c.272-.372.409-.728.41-1.069.001-.34-.125-.712-.38-1.117m4.34-8.257c.683.257 1.122.709 1.32 1.356.19.612.137 1.307-.157 2.09-.301.804-.736 1.418-1.306 1.843l-2.28-.855c.667.053 1.233-.066 1.693-.36a2.08 2.08 0 00.854-1.068c.123-.33.152-.63.08-.901a.746.746 0 00-.48-.55c-.323-.123-.68-.051-1.073.212-.076.052-.44.362-1.085.93-.428.373-.8.622-1.118.747a1.83 1.83 0 01-1.378.01c-.653-.243-1.085-.669-1.3-1.28-.212-.606-.183-1.277.092-2.01.25-.667.622-1.167 1.114-1.498l1.894.713c-.506-.027-.94.094-1.301.358-.32.223-.554.533-.704.927-.124.33-.143.61-.056.838a.75.75 0 00.451.466c.352.13.785-.03 1.298-.484.871-.77 1.36-1.188 1.465-1.255.644-.404 1.302-.481 1.977-.229m-32.479 7.775c.312-.043.527-.359.863-.32.094.014.222.032.295-.045.06-.063.042-.167.001-.236a.937.937 0 00-.288-.298c-.182-.125-.413-.174-.583-.322-.031-.028-.067-.078-.049-.122.078-.2.694.205.768.242.264.134 1.045-.14.797-.472-.149-.198-.471-.107-.685-.126-.224-.019-.45-.014-.676-.043-.114-.014-.276-.033-.373-.109-.096-.073.004-.19.086-.213.09-.023.192.003.28.024.063.014.121.037.183.056.18.057.639.206.774-.001.117-.177-.11-.47-.297-.49-.207-.026-.397.109-.602.124a1.225 1.225 0 01-.43-.07.644.644 0 01-.286-.172c-.085-.096-.13-.22-.192-.33-.066-.116-.138-.228-.204-.344a4.178 4.178 0 01-.35-.838c-.272-.864-.336-1.463-.33-1.485-.027.123-.073.502-.527 1.138-.135.187-.297.35-.441.53-.204.248-.36.578-.358.903.001.052.005.1.012.151.004.034.024.125.028.153 0 0 .25-.677.803-.759a.55.55 0 01.541.34c.103.222.203.523.152.77a.613.613 0 01-.17.313c-.253.208-.584.09-.871.056-.246-.028-.696.012-.543.38.115.274.517.523.81.459.163-.038.298-.144.435-.239.21-.15.497-.21.743-.106.183.078.33.245.32.453a.917.917 0 01-.072.304.602.602 0 00-.009.498.424.424 0 00.445.246m-2.97-1.729c-1.266.89-.41 1.949-.41 1.949-.221-.93.971-1.292.971-1.292-.543-.228-.561-.657-.561-.657m3.287 1.893s.5 1.137-.962 1.32c0 0 2.006.204 1.774-1.561 0 0-.444-.158-.812.24"/><path d="M45.09 57.792c.935 1.099-.105 1.925-.105 1.925 1.789-.663.784-2.251.784-2.251-.179.373-.679.326-.679.326m-9.778-.796c-.18-.136-.375-.25-.552-.393-.088-.073-.217-.176-.258-.29-.043-.115.104-.162.186-.136.091.028.162.104.226.167.044.046.083.096.125.145.124.143.433.512.658.41.192-.09.154-.459.007-.576-.164-.13-.398-.118-.579-.213a1.193 1.193 0 01-.327-.285.63.63 0 01-.152-.3c-.022-.123.006-.254.012-.38.004-.132.002-.267.007-.398.014-.306.079-.602.147-.897a5.28 5.28 0 01.244-.85 1.85 1.85 0 01.401-.617s-.46.466-1.337.775c-.215.072-.441.128-.652.219a1.485 1.485 0 00-.542.397c-.1.12-.175.253-.221.403 0 0 .57-.442 1.081-.222a.57.57 0 01.247.235c.059.108.053.237.034.355-.037.237-.109.546-.282.724a.614.614 0 01-.306.173c-.323.042-.54-.235-.768-.414-.193-.152-.598-.357-.662.037-.045.293.163.716.444.815.16.056.332.035.496.027.26-.014.533.087.689.304.113.163.148.381.03.554a.864.864 0 01-.22.218.606.606 0 00-.27.422.427.427 0 00.247.443c.288.128.638-.027.901.185.073.058.172.142.274.115.085-.02.126-.12.127-.2a.968.968 0 00-.086-.404c-.089-.202-.262-.367-.325-.581-.013-.041-.018-.102.02-.132.173-.127.483.54.526.611.153.255.962.434.926.021-.021-.245-.343-.339-.516-.467m-3.453-2.186c-1.548.086-1.38 1.437-1.38 1.437.303-.906 1.507-.583 1.507-.583-.341-.482-.127-.854-.127-.854m2.606 3.567s-.296-.368-.818-.224c0 0-.176 1.23-1.514.613 0 0 1.596 1.232 2.332-.389"/><path d="M35.047 57.779c.214 1.429-1.107 1.578-1.107 1.578 1.87.384 1.855-1.496 1.855-1.496-.347.222-.748-.082-.748-.082m20.805-21.478c-.106-.037-.544-.071-.602.041-.057.113-.17.432-.636.432-.467 0-.463-.35-.594-.35-.13 0-2.54.37-4.609-.779-.997-.551-2.716-.062-3.44.189a5.73 5.73 0 00-.254.08c-.04.013-.079.03-.117.046.29.292.614.704.668 1.121.103.748-.575 1.092-.575 1.092.203-.414.347-.836.09-1.26-.246-.407-.56-.674-.757-.878-1.69-1.472-3.855-4.507-5.136-10.51-.09-.361-.176-.724-.268-1.084-.167-.646-.35-1.3-.484-1.954-.061-.29-.137-.58-.28-.841-.155-.288-.395-.46-.623-.683-.388-.376-.8-.725-1.185-1.104a40.308 40.308 0 01-1.405-1.424 17.814 17.814 0 01-1.296-1.55l-1.93-2.41S25.269 6.324 22.8.151c0 0-1.39 5.155 5.648 12.656 0 0 2.98 3.462 3.603 4.168a.019.019 0 01-.008.005c-.68-.614-7.755-7.057-11.835-13.341 0 0-1.267 4.537 7.19 11.267L31.7 18.26S20.298 10.565 17.93 7.23c0 0-.04 3.067 4.92 6.915 0 0 6.36 4.383 8.19 5.268 0 0-10.742-4.96-14.015-8.87 0 0-.04 5.124 14.469 10.577 0 0-.199.802.2 1.751.06.142.105.282.168.432-.057-.05-.117-.1-.174-.151-.193-.167-.413-.352-.537-.57-.138-.24-.29-.552-.352-.824a1.92 1.92 0 01-.04-.49s-5.976-1.953-14.28-7.466c0 0 .349 6.013 13.683 9.348 0 0 .035.76.652 1.613l.082.089c-.492-.312-.965-.849-1.012-1.365 0 0-6.745-1.646-10.285-3.622 0 0 1.406 4.512 9.947 5.15 0 0-.102.935.527 1.66-.445-.328-.866-.662-.899-1.315 0 0-3.628-.04-7.436-1.688 0 0 .268 3.314 7.388 3.787 0 0 .047.857.593 1.547-.373-.192-.75-.616-.946-1.114 0 0-4.074-.277-6.174-1.575 0 0-.114 3.264 6.328 3.922 0 0 .281.507.905.76-.49.033-.696-.076-1.021-.431 0 0-3.008-.117-5.23-1.063 0 0 .545 3.572 6.122 3.49 0 0-2.346.515-4.713-.01 0 0 .638 2.419 5.433 1.883 0 0-1.852.658-3.827.495 0 0 1.029 1.953 5.371 1.666 0 0-2.705.563-3.693.296 0 0 .77 2.194 5.421 1.535 0 0-1.936.778-4.115.347 0 0 1.132 2.309 5 1.444 0 0-.37.577-3.045.66 0 0 1.007 1.295 4.814.532-.024.006-.065.054-.085.07a4.363 4.363 0 01-.222.151c-.268.17-.554.3-.864.369a5.83 5.83 0 01-1.263.122l-.106-.005c-.025-.003-.037-.005-.035-.003l-1.067-.064s-4.789 2.462-5.987 2.9c-3.247 1.185-3.664 2.482-3.664 2.482l7.148-3.25s-6.588 3.977-10.395 4.471c0 0 1.148 1.73 4.482-.08 3.196-1.737 7.857-4.043 8.345-4.294l-8.274 4.84s1.606.7 4.673-1.44c0 0-.247.576-.988 1.111 0 0 1.893.227 3.704-1.46 0 0-.274.632-.474.74 0 0 .272.036.439.023.577-.04 1.118-.237 1.623-.493.522-.268 1.041-.52 1.601-.7a8.957 8.957 0 011.08-.276c-.013.003-.025.007-.038.008-.196.045-1.16.308-2.115 1.217l.015-.004a4.587 4.587 0 00-.258.248 6.237 6.237 0 00-1.19 1.88 9.04 9.04 0 00-.453 1.44s1.372-1.485 2.59-1.705c0 0-2.168.93-2.562 3.668 0 0 .619-.684 1.842-1.08.767-.246 2.024-.9 3.147-1.717-.674.61-1.358 1.446-1.584 2.804l5.846-6.096c-1.141 1.27-2.097 3.288-1.141 7.172 0 0 .49-2.512 1.467-3.23 0 0-1.25 2.732-.754 3.942.008.018.036-.266.139-.57.161-.476.464-.845.794-1.22.527-.597.631-1.408.779-2.163.01-.06.029-.121.042-.18a4.611 4.611 0 00.3 1.991c.21-1.104.482-2.205.873-3.26.43-1.154.981-2.266 1.692-3.273.821-1.164 2.056-1.91 3.129-2.813.542-.453 1.06-.94 1.456-1.534.402-.602.593-1.368 1.132-1.87.127-.117.25-.241.38-.355.186-.166.736-.57.87-.044.063-.19.392-1.332 1.734-1.494 0 0-.726-.23-.4-.502.323-.269 2.294-1.949 2.1-2.017M39.175 66.166l2.023-1.981v4.004l-2.023-2.023m-.927.043l-2.023 1.98v-4.004l2.023 2.024m.469-.486L36.735 63.7h4.004l-2.022 2.023m.041.927l1.981 2.023h-4.004l2.023-2.023"/></g></svg>