<svg width="36" height="30" xmlns="http://www.w3.org/2000/svg" xmlns:xlink="http://www.w3.org/1999/xlink"><defs><path id="a" d="M0 .52h15.37v28.345H0z"/><path id="c" d="M.026.52h15.366v28.345H.026z"/><path id="e" d="M.19.796h13.202V14H.191z"/></defs><g fill="none" fill-rule="evenodd"><path d="M21 6.499A6.5 6.5 0 0127.501 0 6.499 6.499 0 0134 6.499a6.5 6.5 0 11-13 0" fill="#a2d19c"/><g transform="rotate(180 18 15)"><mask id="b" fill="#fff"><use xlink:href="#a"/></mask><path d="M6.573 17.839c.141-.142.357-.163.531-.244h.003c2.304-.716 5.352-.235 6.85 2.013 1.361 2.178 1.235 5.214-.646 7.212-1.908 1.972-4.905 2.43-7.473 1.749-2.676-.705-4.58-3.028-5.328-5.432-1.407-4.956.252-10.106 3.123-14.053C6.531 5.119 10.663 1.996 15.37.517 10.917 2.544 7.164 5.795 4.584 9.701 2.05 13.55.58 18.396 1.941 22.714c.636 2.096 2.148 3.981 4.296 4.587 2.1.627 4.65.198 6.231-1.27 1.59-1.447 1.902-4.124.831-6.043-1.062-2.01-3.81-2.764-6.174-2.329h.003c-.189.064-.402.058-.555.18" fill="#a2d19c" mask="url(#b)"/></g><g transform="rotate(180 8 15)"><mask id="d" fill="#fff"><use xlink:href="#c"/></mask><path d="M6.599 17.839c.144-.142.357-.163.53-.244h.004c2.307-.716 5.355-.235 6.852 2.013 1.359 2.178 1.233 5.214-.645 7.212-1.908 1.972-4.905 2.43-7.473 1.749-2.68-.705-4.581-3.028-5.331-5.432-1.407-4.956.252-10.106 3.123-14.053C6.557 5.119 10.69 1.996 15.395.517 10.945 2.544 7.19 5.795 4.61 9.701 2.078 13.55.608 18.396 1.967 22.714c.636 2.096 2.15 3.981 4.296 4.587 2.1.627 4.65.198 6.23-1.27 1.59-1.447 1.903-4.124.832-6.043-1.062-2.01-3.807-2.764-6.174-2.329h.003c-.19.064-.4.058-.555.18" fill="#a2d19c" mask="url(#d)"/><g transform="translate(2 16)"><mask id="f" fill="#fff"><use xlink:href="#e"/></mask><path d="M13.394 7.4a6.6 6.6 0 01-6.6 6.6 6.601 6.601 0 116.6-6.6" fill="#a2d19c" mask="url(#f)"/></g></g></g></svg>