<?xml version="1.0" encoding="UTF-8"?>
<svg width="80px" height="80px" viewBox="0 0 80 80" version="1.1" xmlns="http://www.w3.org/2000/svg" xmlns:xlink="http://www.w3.org/1999/xlink">
    <!-- Generator: Sketch 58 (84663) - https://sketch.com -->
    <title>Play button 01</title>
    <desc>Created with Sketch.</desc>
    <g id="Symbols" stroke="none" stroke-width="1" fill="none" fill-rule="evenodd">
        <g id="Button/Play/Outlined/Hover" stroke="#E6E9E6">
            <g id="Play-button-01">
                <g id="Group-5">
                    <polygon id="Stroke-1" points="15.8140274 1.13209047 1.13104635 15.8150716 0.65336003 16.2953682 0.65336003 16.9688276 0.65336003 63.0668624 0.65336003 63.7403218 1.13104635 64.2180082 15.8140274 78.9035996 16.2917138 79.3838962 16.9677835 79.3838962 63.0658183 79.3838962 63.741888 79.3838962 64.2195743 78.9035996 78.9025554 64.2180082 79.3802418 63.7403218 79.3802418 63.0668624 79.3802418 16.9688276 79.3802418 16.2953682 78.9025554 15.8150716 64.2195743 1.13209047 63.741888 0.651793845 63.0658183 0.651793845 16.9677835 0.651793845 16.2917138 0.651793845"></polygon>
                    <path d="M17.6443752,3.91937709 C13.0685057,8.49524657 8.49524657,13.0685057 3.91676678,17.6443752 L3.91676678,62.3902707 C8.49524657,66.9661402 13.0685057,71.5393993 17.6443752,76.1152688 L62.3902707,76.1152688 C66.9661402,71.5393993 71.5393993,66.9661402 76.1152688,62.3902707 L76.1152688,17.6443752 C71.5393993,13.0685057 66.9661402,8.49524657 62.3902707,3.91937709 L17.6443752,3.91937709 Z" id="Stroke-3"></path>
                </g>
            </g>
        </g>
    </g>
</svg>