<svg width="91" height="32" xmlns="http://www.w3.org/2000/svg" xmlns:xlink="http://www.w3.org/1999/xlink"><defs><path id="a" d="M0 .136h90.902V32H0z"/></defs><g fill="none" fill-rule="evenodd"><path d="M60.9 9.585l-.439-.158c-.359-.129-.572-.12-.572.688V22.62c0 .85.26.873.691.722l.359-.136c.403-.135.505-.417.505-1.002V10.723c0-.815-.16-1.003-.544-1.138m5.918 1.571l-.707-.23v5.464h.731c.495 0 .825-.216.825-1.27v-2.382c0-.983-.185-1.368-.849-1.582" fill="#626865"/><mask id="b" fill="#fff"><use xlink:href="#a"/></mask><path d="M74.151 15.427v1.193l-2.497.068v2.798l2.763-.834v1.286l-4.108 1.44v-10.62l4.108 1.44v1.28l-2.763-.848v2.73l2.497.067zm-6.498 6.882l-1.036-4.942h-.616v5.521l-1.392.488V8.763l2.73.951c1.05.37 1.57 1.163 1.57 2.362v3.128c0 .577-.148 1.434-.937 1.876l1.017 4.76-1.336.47zm-4.496.228c0 .958-.346 1.47-1.137 1.747l-1.479.518c-1.03.362-1.973.038-1.973-1.433V8.81c0-1.488.99-1.822 1.854-1.522l1.319.466c.966.343 1.416 1.063 1.416 2.265v12.517zm-6.053 3.47l-1.393.488V12.681l-1.574 7.072-1.06.106-1.495-8.007v16.09l-1.44.505V3.69l1.318.46 2.244 11.802 2.19-10.246 1.21.424v19.878zm-8.789 1.529c0 1.223-.241 1.636-1.154 1.953l-1.71.603-1.716-.6c-.907-.32-1.156-.733-1.156-1.956V21.77h1.392v5.515c0 .642.13.88.7 1.078l.78.273.776-.273c.558-.202.696-.436.696-1.078v-4.1c0-3.01-.38-4.685-1.355-5.976l-1.36-1.8c-1.173-1.551-1.63-3.545-1.63-7.107V4.6c0-1.224.232-1.63 1.155-1.954l1.718-.602 1.708.599c.92.322 1.156.733 1.156 1.957v5.765h-1.392V4.85c0-.641-.138-.883-.7-1.079L45.45 3.5l-.787.274c-.566.199-.693.435-.693 1.076v3.582c0 3.078.354 4.642 1.355 5.977l1.36 1.799c1.172 1.541 1.63 3.534 1.63 7.108v4.22zm-7.563.908l-1.417-.496V4.188l1.417-.496v24.752zm-3.114-1.091l-1.426-.5-3.52-14.274v13.04l-1.369-.48V6.997l1.364-.478 3.534 14.52V5.28l1.417-.496v22.569zm-8.013-2.81l-1.39-.486-3.556-10.381v9.134l-1.369-.48V9.807l1.39-.488 3.557 10.575V8.073l1.368-.48v16.95zM21.85 11.787l-3.18.943v2.786l2.9-.164v1.439l-2.9-.023v2.606l3.18.953v1.493l-4.549-1.594v-8.313l4.549-1.595v1.469zM45.45.136L0 16.068 45.451 32l45.451-15.932L45.452.136z" fill="#3B423F" mask="url(#b)"/></g></svg>