<?xml version="1.0" encoding="UTF-8"?>
<svg width="69px" height="40px" viewBox="0 0 69 40" version="1.1" xmlns="http://www.w3.org/2000/svg" xmlns:xlink="http://www.w3.org/1999/xlink">
    <!-- Generator: Sketch 52.6 (67491) - http://www.bohemiancoding.com/sketch -->
    <title>Style/Flourish/09/Green400</title>
    <desc>Created with Sketch.</desc>
    <g id="Homepage" stroke="none" stroke-width="1" fill="none" fill-rule="evenodd">
        <g id="GE-S03-HomePage-Desktop" transform="translate(-686.000000, -785.000000)" fill="#104520">
            <g id="Stay" transform="translate(0.000000, 700.000000)">
                <g id="Style/Flourish/09/Green400" transform="translate(664.000000, 81.000000)">
                    <path d="M86.9584174,18.8774443 C85.2792162,19.7770735 83.2206339,20.1052301 81.2869113,19.9147392 C80.3152477,19.8058873 79.3451848,19.5833811 78.4407533,19.218407 C77.5907477,18.851832 76.6831146,18.2435418 75.8074969,17.7697157 L70.507368,14.7298653 L70.4177252,14.6786409 C71.8520095,13.8638521 73.2942977,13.0682725 74.7525935,12.3047082 C76.145258,11.6051744 77.5443256,10.9264505 78.9754084,10.3501756 C79.6861475,10.0636389 80.4160958,9.85073729 81.1300364,9.63143265 L82.1817382,9.47295703 C82.5371078,9.42813565 82.9308957,9.4921662 83.3038737,9.49696849 C84.7973863,9.61062272 86.3149103,9.92277166 87.5010763,10.7455642 C88.7016491,11.5075278 89.5036318,12.9001923 89.5708639,14.2480354 L89.5740654,14.3088644 C89.6861189,16.1193283 88.6568278,18.0162334 86.9584174,18.8774443 Z M57.8533302,20.7151211 C57.3282797,21.04808 56.8128338,21.3970465 56.289384,21.7332069 L55.4441808,21.2001525 C51.783234,18.9270679 48.1046788,16.6859986 44.3460854,14.5649866 L43.6945746,14.203214 L52.7853121,8.714195 L56.1309084,6.69723263 L59.7614407,8.88867825 L68.6136644,14.2352293 C64.9607215,16.2922108 61.3862159,18.472451 57.8533302,20.7151211 Z M60.1440232,25.839166 L61.8312283,26.9340884 C59.9839468,27.9425696 58.1750838,29.0006744 56.3838291,30.0859923 L56.1084977,30.2556732 C54.6998256,29.4008654 53.2799481,28.5604644 51.8424622,27.7440749 C51.4518759,27.5247702 51.0564872,27.3134694 50.6643001,27.0973663 L50.7347337,27.0493434 C52.5756121,25.8087515 54.4405019,24.6017756 56.3021901,23.3915981 L60.1440232,25.839166 Z M65.5385972,26.7067799 C66.0124233,26.4970799 66.4830478,26.3017867 66.9328624,26.1625203 C67.2530152,26.0648737 67.728442,26.076079 68.0806101,26.191334 C68.426375,26.312992 68.5912537,26.5130875 68.6552843,26.7836166 C68.7257179,27.058948 68.6408774,27.4367282 68.4231735,27.7040558 C68.0005719,28.285133 67.3090419,28.2595208 66.3245722,27.8625314 C65.7819133,27.648029 65.2712696,27.3871045 64.7654283,27.1021686 C65.024752,26.9757083 65.2792734,26.828438 65.5385972,26.7067799 Z M60.721899,38.8597786 C60.2736851,40.6558356 58.6697198,42.096523 56.8400468,42.3430406 C55.0103738,42.6439842 53.0654458,41.7555603 52.0985844,40.1660018 C51.1013086,38.6084587 51.1381262,36.4506291 52.2250448,34.9379073 C52.7532968,34.1391262 53.4816444,33.6733039 54.4453042,33.0842229 L56.1020947,32.053331 C57.0945682,32.6680243 58.0870418,33.2859191 59.06831,33.9150193 C60.5394119,35.0499608 61.2213373,37.074927 60.721899,38.8597786 Z M46.0188836,28.109049 C45.3081445,28.3635705 44.7862955,28.4179964 44.4037129,28.1458666 C44.0131266,27.8849421 43.7618067,27.289458 43.9042746,26.8988716 C44.003522,26.5274944 44.443732,26.2873798 45.0968436,26.2665699 C45.5610651,26.2473607 46.3182264,26.5915249 46.9937487,26.8812632 C47.256274,27.0029212 47.5171985,27.14699 47.7797238,27.2766518 C47.2050496,27.5984054 46.6079647,27.899349 46.0188836,28.109049 Z M36.7408567,17.598434 C35.8652389,18.0738608 34.9576058,18.6805503 34.1059995,19.0471252 C33.201568,19.4153009 32.2331059,19.6362063 31.2598415,19.7434575 C29.3261188,19.9323476 27.2659359,19.6073926 25.5867346,18.7077633 C23.8883243,17.8449516 22.8590332,15.9496473 22.9710866,14.1359819 L22.9726874,14.0767537 C23.015908,13.1691206 23.3856844,12.163841 23.9955754,11.4306911 C24.6022649,10.6719291 25.4522705,10.1260687 26.3967211,9.79791208 C27.3379702,9.46335245 28.362459,9.30487683 29.3965524,9.29046996 L30.1729229,9.27446232 L30.8820612,9.40732572 C31.344682,9.4521471 31.845721,9.68265709 32.3323532,9.84593499 C35.613919,11.1073369 38.7642221,12.8697778 41.8809092,14.6498271 L36.7408567,17.598434 Z M88.0885566,9.89715944 C86.6814852,8.90308512 84.9974817,8.55251786 83.3887141,8.40524759 C82.9789186,8.39404224 82.5851307,8.32360863 82.1609283,8.36522849 L80.8787165,8.53490945 C80.0927415,8.76221791 79.3067665,8.98472408 78.5592098,9.27446232 C77.0656972,9.85393881 75.6298121,10.5278604 74.2035315,11.2209911 C72.4891135,12.0902058 70.8035093,13.0042419 69.1291103,13.9406888 L59.9039087,8.65016445 L56.3069924,6.58838069 L58.0166082,5.55748881 C58.8970282,5.04684517 59.7310262,4.43695417 60.7170967,4.18083196 C61.6775549,3.90710135 62.8188995,4.03516246 63.5664562,4.75550616 C62.8365079,4.01595329 61.6807565,3.85747768 60.701089,4.11520064 C59.6926078,4.35211369 58.8313969,4.9524001 57.9461745,5.43743153 L56.1229046,6.48433105 L54.602179,5.61191478 C53.7153559,5.12368183 52.8541449,4.52339541 51.8456638,4.28808313 C50.8659963,4.03196093 49.7102449,4.18883578 48.9802966,4.92678788 C49.7278533,4.20644418 50.8707986,4.08158461 51.8296561,4.35531521 C52.8157266,4.60983665 53.6497246,5.21972766 54.5301446,5.72877054 L55.9468206,6.58517916 L52.6428441,8.47888272 L43.1695241,13.911875 C39.7871102,12.0357799 36.4143009,10.1532816 32.706932,8.77662479 C32.1738776,8.60694382 31.6872454,8.37963537 31.0709514,8.31080252 C30.7780116,8.26277961 30.4818703,8.20675288 30.1905313,8.17313684 L29.3549326,8.19874906 C28.2424018,8.23076434 27.1106618,8.41325141 26.0333477,8.81184159 C23.8483052,9.53218529 22.060252,11.6275851 22.0074268,14.0639476 C21.8889703,16.3338306 23.1983951,18.5076678 25.1577299,19.488936 C27.0914526,20.4846111 29.2428791,20.7743494 31.3478835,20.5550447 C32.3979845,20.4285844 33.4272757,20.1676599 34.4021408,19.7450582 C35.410622,19.2744337 36.1837909,18.7077633 37.0866217,18.1923174 L42.3211192,15.0340104 L42.4331727,14.9651776 C42.8557744,15.2068929 43.278376,15.4486082 43.7009776,15.6887228 C47.4019435,17.8593585 51.0708941,20.0908232 54.7094302,22.3767139 L55.008773,22.5688056 C53.3151649,23.6621272 51.6183553,24.7474451 49.9407549,25.866379 L49.234818,26.3370035 C48.6985622,26.0600714 48.1639071,25.7831392 47.6068413,25.5286178 C46.8400754,25.2388795 46.1533477,24.8034718 45.0328131,24.7938672 C44.5669908,24.8178787 44.064351,24.8947153 43.5745173,25.1652444 C43.0926874,25.4309712 42.6620819,25.9144019 42.5004048,26.4810722 C42.180252,27.6272191 42.7085041,28.7301454 43.5937265,29.3528425 C44.0467426,29.6713945 44.6246183,29.789851 45.1496689,29.7770449 C45.6715178,29.7434288 46.0941195,29.6121662 46.5023143,29.4696982 C47.3107,29.1767585 48.0326444,28.800579 48.7433836,28.3859811 L49.2684341,28.0354139 C49.8799258,28.366772 50.4914176,28.7077347 51.0981071,29.0502981 C52.2890753,29.7338243 53.470439,30.4429626 54.6453996,31.1569033 L53.6273139,31.7844027 C52.7613007,32.3014494 51.6215568,33.0201923 50.9556391,34.0510842 C49.5069479,36.0520389 49.438115,38.9126038 50.7603459,40.998399 C52.0313524,43.1146087 54.635795,44.3263869 57.0769598,43.9229944 C59.5341322,43.5788302 61.6519427,41.6547122 62.2426245,39.2551672 C62.8989377,36.8732307 61.9656924,34.1647384 59.9999545,32.6808304 L59.9647377,32.6536174 L59.9439278,32.6408113 C59.1515497,32.1381715 58.3527686,31.6499385 57.5571889,31.158504 C59.2604016,30.1196083 60.9764204,29.1047241 62.7148499,28.1506689 C62.9005385,28.04822 63.0910294,27.9633795 63.2783187,27.8609306 C64.0546892,28.366772 64.9110978,28.8550049 65.8011224,29.2055722 C66.3469829,29.4056677 66.9072502,29.6249723 67.66121,29.6009609 C68.4103674,29.5753486 69.1419165,29.1703554 69.578925,28.5860766 C70.0255381,28.0098017 70.249645,27.2510396 70.0831656,26.4730684 C69.9390968,25.6806904 69.2507684,25.0115711 68.568843,24.8066733 C67.8933207,24.5905702 67.261019,24.5617565 66.5406753,24.741042 C65.9595981,24.9155253 65.4377491,25.1332291 64.9271054,25.3573361 C64.3684389,25.6166598 63.8353845,25.906398 63.2927256,26.1833302 L60.9075876,24.6481977 L57.5828012,22.5495964 C57.9221631,22.3302918 58.2567227,22.1029833 58.5976854,21.8836787 C62.3162597,19.5177498 66.0604462,17.1838362 69.876667,14.9955921 L70.2256335,15.2068929 L75.4585304,18.3684014 C76.3613611,18.8822466 77.13453,19.4473162 78.1430112,19.9195415 C79.1178764,20.3421431 80.150369,20.6014669 81.1988693,20.7279272 C83.3022729,20.9488326 85.456901,20.6574936 87.3906236,19.6618185 C89.3451562,18.6821511 90.6561817,16.5131162 90.5409267,14.2464346 C90.4752954,12.4535792 89.5068333,10.8560169 88.0885566,9.89715944 Z" id="Fill-4"></path>
                </g>
            </g>
        </g>
    </g>
</svg>