<?xml version="1.0" encoding="UTF-8"?>
<svg width="98px" height="24px" viewBox="0 0 98 24" version="1.1" xmlns="http://www.w3.org/2000/svg" xmlns:xlink="http://www.w3.org/1999/xlink">
    <!-- Generator: Sketch 52.6 (67491) - http://www.bohemiancoding.com/sketch -->
    <title>Style/Flourish/03/Green400</title>
    <desc>Created with Sketch.</desc>
    <g id="Homepage" stroke="none" stroke-width="1" fill="none" fill-rule="evenodd">
        <g id="GE-S03-HomePage-Desktop" transform="translate(-674.000000, -4646.000000)" fill="#104520">
            <g id="News" transform="translate(0.000000, 4436.000000)">
                <g id="Style/Flourish/03/Green400" transform="translate(667.000000, 198.000000)">
                    <path d="M102.516966,29.0496913 C104.223034,27.1506012 104.499076,24.458667 103.693779,22.1257957 C102.996408,19.7534898 101.404493,17.7236427 99.3621933,16.3704113 C97.3198932,14.9860473 94.9040015,14.2928275 92.4154671,13.9607462 C87.4383983,13.3194142 82.3596296,14.1101828 77.4572791,15.4654897 C72.557004,16.8041925 67.8725819,18.8797008 63.2711801,21.1586089 C54.0455458,25.6873679 44.7638729,30.490094 34.9218127,33.862795 C29.9530459,35.5688628 24.6231407,36.3617069 19.3949354,35.8428298 C16.7818705,35.5543342 14.2227688,35.0209286 11.761216,34.0620438 C10.5532701,33.5431667 9.3868345,32.8291918 8.53380061,31.8080418 C7.67038917,30.7931182 7.18887125,29.5270582 7,28.2526961 C7.502273,30.8512325 9.56325271,32.7856062 11.9625403,33.5493932 C14.3659788,34.3235578 16.9437601,34.7075268 19.4717292,34.8299818 C24.5567244,35.1267795 29.6500217,34.1844987 34.3780295,32.3622025 C43.9980103,28.7155345 53.1281712,24.0103572 62.364183,19.2948025 C67.0403031,17.0491025 71.8741618,14.9694432 76.9695346,13.6431934 C82.0047177,12.3460008 87.367831,11.4493812 92.6583016,12.3895865 C95.2568379,12.8337452 97.9176395,13.6888546 100.113527,15.3015246 C102.313566,16.8789108 104.021709,19.2180086 104.667192,21.8539041 C104.986821,23.1490213 105.117578,24.5499894 104.82078,25.8907677 C104.540586,27.2294706 103.85982,28.460247 102.92169,29.4149808 C101.055808,31.359732 98.3451942,32.245974 95.771564,32.1297456 C98.3451942,32.0259702 100.883541,30.9467059 102.516966,29.0496913 Z" id="Fill-1"></path>
                </g>
            </g>
        </g>
    </g>
</svg>