<?xml version="1.0" encoding="UTF-8"?>
<svg width="201px" height="20px" viewBox="0 0 201 20" version="1.1" xmlns="http://www.w3.org/2000/svg" xmlns:xlink="http://www.w3.org/1999/xlink">
    <!-- Generator: Sketch 59.1 (86144) - https://sketch.com -->
    <title>Glen logo</title>
    <desc>Created with Sketch.</desc>
    <defs>
        <polygon id="path-1" points="0.231014493 0.142857143 12.8394203 0.142857143 12.8394203 20 0.231014493 20"></polygon>
    </defs>
    <g id="Page-1" stroke="none" stroke-width="1" fill="none" fill-rule="evenodd">
        <g id="Glen-logo">
            <path d="M18.0952381,10.9482759 C17.0278192,11.1402299 16.4943955,12.0212644 16.4943955,13.591954 L16.4943955,18.8505747 C14.7025954,19.6166667 12.4065298,20 9.60505529,20 C6.57488904,20 4.17362522,19.0132184 2.40126382,17.0402299 C0.800421274,15.2586207 0,13.0557471 0,10.4310345 C0,7.63390805 0.90504777,5.24942529 2.71571504,3.27586207 C4.71676822,1.09195402 7.42276386,0 10.8342737,0 C13.0640187,0 14.8838336,0.373563218 16.2942902,1.12068966 L16.2942902,6.81034483 C15.9129467,5.54597701 15.1794177,4.55977011 14.0931317,3.85057471 C13.082314,3.17988506 11.9108403,2.84482759 10.5769954,2.84482759 C8.69028812,2.84482759 7.175205,3.52011494 6.03174603,4.87068966 C4.88828707,6.22126437 4.31655759,7.91206897 4.31655759,9.94252874 C4.31655759,11.9350575 4.84998119,13.6114943 5.91740014,14.9712644 C7.0414203,16.3890805 8.4999022,17.0977011 10.2911307,17.0977011 C11.110419,17.0977011 11.8633867,16.9827586 12.5494621,16.7528736 L12.5494621,13.6781609 C12.5494621,12.087931 11.9965997,11.1781609 10.8914466,10.9482759 L18.0952381,10.9482759 Z" id="Fill-1" fill="#104520"></path>
            <path d="M37.1428571,12.7556128 L36.1635945,19.047619 L22.9723502,19.047619 C23.9130184,18.8382668 24.3842166,17.6462176 24.3842166,15.4726155 L24.3842166,3.2032032 C24.3842166,1.27784928 23.875,0.20992421 22.8571429,0 L29.9135945,0 C28.8767281,0.19047619 28.3582949,1.25840126 28.3582949,3.2032032 L28.3582949,16.4164164 L32.3617512,16.4164164 C33.5524194,16.4164164 34.531682,16.1018161 35.2995392,15.4726155 C35.9907834,14.9194909 36.6048387,14.014014 37.1428571,12.7556128" id="Fill-3" fill="#104520"></path>
            <path d="M55.2380952,13.2416389 L54.2990319,19.047619 L41.2090583,19.047619 C42.2904039,18.8382606 42.8305076,17.7039494 42.8305076,15.6441134 L42.8305076,3.17412649 C42.8305076,1.28703994 42.2050345,0.228235082 40.952381,0 L53.9575543,0 L53.9575543,5.43416862 C53.577376,3.52763346 52.4493617,2.57407987 50.5712351,2.57407987 L46.8718947,2.57407987 L46.8718947,8.12265205 L50.086906,8.12265205 C51.3964725,8.12265205 52.1454467,7.62671266 52.3349667,6.63483388 L52.3349667,12.1834061 C52.1647971,11.2109759 51.4340351,10.7253328 50.1443881,10.7253328 L46.8718947,10.7253328 L46.8718947,16.4169094 L50.8273432,16.3877365 C51.9656018,16.3877365 52.8762087,16.1400528 53.5591638,15.6441134 C54.242119,15.1487461 54.8010039,14.3479212 55.2380952,13.2416389" id="Fill-5" fill="#104520"></path>
            <path d="M79.047619,0 C78.0041408,0.20992421 77.4824017,1.25840126 77.4824017,3.14600315 L77.4824017,19.047619 L74.4638509,19.047619 C74.2893582,18.5905906 74.0667495,18.1049621 73.7960248,17.5907336 C73.157764,16.3912484 72.3444306,15.1923352 71.357764,13.992278 L64.9026915,6.22851423 L64.9026915,15.9353639 C64.9026915,17.8006578 65.5015321,18.8388388 66.699793,19.047619 L60.1780538,19.047619 C61.1826915,18.8382668 61.6853002,17.7892178 61.6853002,15.9016159 L61.6853002,3.34620335 C61.6853002,2.43100243 61.269648,1.61132561 60.4383437,0.886600887 C59.9942857,0.486200486 59.5305176,0.19047619 59.047619,0 L65.1925466,0 L74.3229814,11.2386672 L74.3229814,3.14543115 C74.3229814,1.25840126 73.771677,0.20992421 72.6708075,0 L79.047619,0 Z" id="Fill-7" fill="#104520"></path>
            <path d="M98.0952381,13.2416389 L97.1561748,19.047619 L84.0662011,19.047619 C85.1475468,18.8382606 85.6876505,17.7039494 85.6876505,15.6441134 L85.6876505,3.17412649 C85.6876505,1.28703994 85.0621774,0.228235082 83.8095238,0 L96.8146972,0 L96.8146972,5.43416862 C96.4345188,3.52763346 95.3065046,2.57407987 93.4283779,2.57407987 L89.7290375,2.57407987 L89.7290375,8.12265205 L92.9440489,8.12265205 C94.2536154,8.12265205 95.0025895,7.62671266 95.1921096,6.63483388 L95.1921096,12.1834061 C95.0219399,11.2109759 94.2911779,10.7253328 93.001531,10.7253328 L89.7290375,10.7253328 L89.7290375,16.4169094 L93.6844861,16.3877365 C94.8227447,16.3877365 95.7333515,16.1400528 96.4163067,15.6441134 C97.0992618,15.1487461 97.6581468,14.3479212 98.0952381,13.2416389" id="Fill-9" fill="#104520"></path>
            <path d="M114.95197,12.3266123 L112.001027,4.95981696 L109.171711,12.3266123 L114.95197,12.3266123 Z M123.809524,19.047619 L115.691182,19.047619 C116.537261,18.9332189 116.960596,18.4944945 116.960596,17.7320177 C116.960596,17.5798656 116.792915,17.0559131 116.458734,16.1590162 L115.956873,14.8148148 L108.194558,14.8148148 L107.692106,16.1304161 C107.415197,16.8557129 107.277628,17.3607894 107.277628,17.6462176 C107.277628,18.4859145 107.730484,18.952667 108.635605,19.047619 L101.904762,19.047619 C102.1799,18.990419 102.465666,18.8382668 102.760878,18.5900186 C103.469388,17.960818 104.128302,16.8837409 104.738801,15.3582154 L110.967783,0 L114.45129,0 L120.916442,15.4726155 C121.821563,17.6462176 122.786318,18.8382668 123.809524,19.047619 L123.809524,19.047619 Z" id="Fill-11" fill="#104520"></path>
            <path d="M144.761905,10.9482759 C143.694486,11.1402299 143.161062,12.0212644 143.161062,13.591954 L143.161062,18.8505747 C141.369262,19.6166667 139.073196,20 136.271722,20 C133.241556,20 130.840292,19.0132184 129.06793,17.0402299 C127.467088,15.2586207 126.666667,13.0557471 126.666667,10.4310345 C126.666667,7.63390805 127.571714,5.24942529 129.382382,3.27586207 C131.383435,1.09195402 134.089431,0 137.50094,0 C139.730685,0 141.5505,0.373563218 142.960957,1.12068966 L142.960957,6.81034483 C142.579613,5.54597701 141.846084,4.55977011 140.759798,3.85057471 C139.748981,3.17988506 138.577507,2.84482759 137.243662,2.84482759 C135.356955,2.84482759 133.841872,3.52011494 132.698413,4.87068966 C131.554954,6.22126437 130.983224,7.91206897 130.983224,9.94252874 C130.983224,11.9350575 131.516648,13.6114943 132.584067,14.9712644 C133.708087,16.3890805 135.166569,17.0977011 136.957797,17.0977011 C137.777086,17.0977011 138.530053,16.9827586 139.216129,16.7528736 L139.216129,13.6781609 C139.216129,12.087931 138.663266,11.1781609 137.558113,10.9482759 L144.761905,10.9482759 Z" id="Fill-13" fill="#104520"></path>
            <path d="M163.809524,12.7556128 L162.830261,19.047619 L149.639017,19.047619 C150.579685,18.8382668 151.050883,17.6462176 151.050883,15.4726155 L151.050883,3.2032032 C151.050883,1.27784928 150.541667,0.20992421 149.52381,0 L156.580261,0 C155.543395,0.19047619 155.024962,1.25840126 155.024962,3.2032032 L155.024962,16.4164164 L159.028418,16.4164164 C160.219086,16.4164164 161.198349,16.1018161 161.966206,15.4726155 C162.65745,14.9194909 163.271505,14.014014 163.809524,12.7556128" id="Fill-15" fill="#104520"></path>
            <path d="M182.857143,13.2416389 L181.91808,19.047619 L168.828106,19.047619 C169.909452,18.8382606 170.449555,17.7039494 170.449555,15.6441134 L170.449555,3.17412649 C170.449555,1.28703994 169.824082,0.228235082 168.571429,0 L181.576602,0 L181.576602,5.43416862 C181.196424,3.52763346 180.068409,2.57407987 178.190283,2.57407987 L174.490942,2.57407987 L174.490942,8.12265205 L177.705954,8.12265205 C179.01552,8.12265205 179.764494,7.62671266 179.954014,6.63483388 L179.954014,12.1834061 C179.783845,11.2109759 179.053083,10.7253328 177.763436,10.7253328 L174.490942,10.7253328 L174.490942,16.4169094 L178.446391,16.3877365 C179.584649,16.3877365 180.495256,16.1400528 181.178211,15.6441134 C181.861167,15.1487461 182.420052,14.3479212 182.857143,13.2416389" id="Fill-17" fill="#104520"></path>
            <g id="Group-21" transform="translate(187.619048, 0.000000)">
                <mask id="mask-2" fill="white">
                    <use xlink:href="#path-1"></use>
                </mask>
                <g id="Clip-20"></g>
                <path d="M12.8397101,14.2857143 C12.8397101,16.0954286 12.1626087,17.5142857 10.8107246,18.5428571 C9.53536232,19.5142857 7.84434783,20 5.73826087,20 C3.57362319,20 1.73826087,19.524 0.231014493,18.5714286 L0.231014493,12.5142857 C0.694782609,14.1142857 1.47681159,15.324 2.57884058,16.1428571 C3.52550725,16.8474286 4.61710145,17.2 5.85362319,17.2 C6.74231884,17.2 7.4773913,17 8.05710145,16.6 C8.63681159,16.2 8.92666667,15.6668571 8.92666667,15 C8.92666667,14.1428571 8.44318841,13.3714286 7.4773913,12.6857143 C7.28376812,12.5525714 6.23101449,11.9811429 4.31797101,10.9714286 C3.06173913,10.3045714 2.14405797,9.65714286 1.56434783,9.02857143 C0.733043478,8.13314286 0.317391304,7.06685714 0.317391304,5.82857143 C0.317391304,4.09542857 0.94115942,2.71428571 2.18753623,1.68571429 C3.43333333,0.657142857 5.0426087,0.142857143 7.01304348,0.142857143 C8.81072464,0.142857143 10.3173913,0.571428571 11.5353623,1.42857143 L11.5353623,6.45714286 C11.1481159,5.25714286 10.482029,4.35257143 9.53536232,3.74285714 C8.72318841,3.19085714 7.7857971,2.91428571 6.72318841,2.91428571 C5.83449275,2.91428571 5.15855072,3.11428571 4.6942029,3.51428571 C4.23043478,3.91428571 3.99913043,4.4 3.99913043,4.97142857 C3.99913043,5.90514286 4.76202899,6.77142857 6.2884058,7.57142857 C8.87797101,8.924 10.2982609,9.69542857 10.5498551,9.88571429 C12.0762319,11.0285714 12.8397101,12.4954286 12.8397101,14.2857143" id="Fill-19" fill="#104520" mask="url(#mask-2)"></path>
            </g>
        </g>
    </g>
</svg>