<?xml version="1.0" encoding="UTF-8"?>
<svg width="61px" height="63px" viewBox="0 0 61 63" version="1.1" xmlns="http://www.w3.org/2000/svg" xmlns:xlink="http://www.w3.org/1999/xlink">
    <!-- Generator: Sketch 59.1 (86144) - https://sketch.com -->
    <title>Logo</title>
    <desc>Created with Sketch.</desc>
    <defs>
        <polygon id="path-1" points="0 0.8376398 6.56044638 0.8376398 6.56044638 6.92809143 0 6.92809143"></polygon>
        <polygon id="path-3" points="0.739108571 0.885942857 31.539875 0.885942857 31.539875 44.2507521 0.739108571 44.2507521"></polygon>
    </defs>
    <g id="Symbols" stroke="none" stroke-width="1" fill="none" fill-rule="evenodd">
        <g id="Footer/Desktop/01" transform="translate(-628.000000, -353.000000)">
            <g id="Logos" transform="translate(628.000000, 352.000000)">
                <g id="Logo" transform="translate(-0.000000, 0.000000)">
                    <path d="M44.8063086,28.9879771 C44.8063086,28.9879771 44.6527086,29.3838629 44.3711086,29.5612343 C44.3711086,29.5612343 44.74688,29.0730057 44.4533943,28.8261486 C44.26688,28.6679771 44.0008229,28.69632 43.9423086,28.8014629 C43.05088,30.4005486 41.4773943,30.90432 42.3871086,30.9015771 C42.7939657,30.9006629 44.3162514,30.9591771 44.6728229,30.5148343 L42.8506514,30.60992 C42.8506514,30.60992 45.8120229,29.2320914 45.0915657,30.7772343 C45.0915657,30.7772343 46.7893943,29.5740343 44.8063086,28.9879771" id="Fill-1" fill="#104520"></path>
                    <path d="M50.3018057,3.10710857 C50.25792,2.96630857 50.1902629,2.84288 50.1381486,2.70848 C50.1381486,2.70848 50.50112,3.66573714 49.5978057,5.34710857 C48.8718629,6.70025143 46.6656914,10.1480229 46.6656914,10.1480229 C46.6656914,10.1480229 47.1118629,9.44493714 47.5964343,7.51670857 C48.17152,5.22733714 47.7180343,3.89613714 47.7180343,3.89613714 C47.7180343,3.89613714 48.0224914,4.87350857 47.0222629,6.49819429 C46.0202057,8.12562286 45.2220343,9.73659429 44.6634057,10.97088 C44.6606629,10.9699657 44.65792,10.9681371 44.6551771,10.9663086 C45.1882057,9.58848 45.6453486,7.82665143 45.06112,6.25225143 C45.08672,6.33819429 44.60672,8.67785143 43.8368914,10.0346514 C42.6876343,12.0616229 42.1463771,14.1919086 42.1463771,14.1919086 C42.1463771,14.1919086 42.2990629,12.99968 42.5422629,12.0661943 C43.0560914,10.0995657 42.3950629,9.10208 42.40512,9.03716571 C42.40512,9.03716571 42.5623771,10.5338514 41.7294629,11.7425371 C40.60672,13.3727086 40.79232,15.1765943 40.79232,15.1765943 C40.6085486,14.43968 40.6021486,13.2547657 40.8142629,11.5898514 C40.8142629,11.5898514 38.9527771,14.32448 39.1950629,18.2467657 C38.7598629,17.1359086 39.0506057,14.5951086 39.0506057,14.5951086 C36.8791771,16.7793371 38.2085486,20.0863086 38.2085486,20.0863086 C37.0583771,18.8154514 37.6206629,16.4821943 37.6206629,16.4821943 C34.9802057,18.3976229 37.50912,20.6897371 37.50912,20.6897371 C35.9639771,20.1274514 36.06912,18.2037943 36.06912,18.2037943 C35.1658057,18.8767086 34.8037486,19.70048 34.8037486,19.70048 C35.1365486,20.8469943 36.5436343,21.3983086 36.5436343,21.3983086 C35.2874057,21.2657371 34.4654629,19.9263086 34.4654629,19.9263086 C33.8108343,20.4264229 33.5886629,20.9722514 33.5886629,20.9722514 C33.9223771,21.8371657 35.22432,22.2184229 35.22432,22.2184229 C33.9772343,22.3080229 33.4359771,21.2136229 33.4359771,21.2136229 C32.8078629,21.7649371 32.7438629,22.48448 32.7438629,22.48448 C33.0062629,23.1253943 34.26432,23.4426514 34.26432,23.4426514 C33.1799771,23.5386514 32.5664914,22.7423086 32.5664914,22.7423086 C32.2282057,23.20128 32.3424914,23.9811657 32.3424914,23.9811657 C33.1022629,27.0467657 35.1822629,28.6650514 35.1822629,28.6650514 C36.4458057,28.0744229 38.30272,27.8714514 38.30272,27.8714514 C40.04992,23.64288 43.99872,20.2901943 44.1029486,20.2042514 C44.2382629,20.09088 44.3397486,19.9775086 44.4092343,19.8138514 C44.5116343,19.5715657 44.90752,18.42688 45.0254629,18.1087086 C45.14432,17.7914514 45.2640914,17.4751086 45.3847771,17.15968 C45.5045486,16.84608 45.6261486,16.5343086 45.7486629,16.2216229 C45.8684343,15.9125943 45.9918629,15.6053943 46.11712,15.29728 C46.2396343,14.9946514 46.3639771,14.6920229 46.4910629,14.3903086 C46.61632,14.0931657 46.7415771,13.7969371 46.8695771,13.5007086 C46.9957486,13.21088 47.1228343,12.9210514 47.2517486,12.6330514 C47.37792,12.3514514 47.5040914,12.0698514 47.6320914,11.7891657 C47.7564343,11.5176229 47.8816914,11.2469943 48.0078629,10.9754514 C48.1285486,10.7176229 48.2501486,10.45888 48.3708343,10.2001371 L48.7164343,9.46870857 C48.8234057,9.24196571 48.9294629,9.01705143 49.03552,8.79122286 C49.1333486,8.58550857 49.2302629,8.37979429 49.3262629,8.17408 C49.4103771,7.99122286 49.49632,7.80745143 49.5804343,7.62368 C49.6535771,7.46368 49.7248914,7.30368 49.7962057,7.14276571 C49.8583771,7.00379429 49.9178057,6.86665143 49.9772343,6.72676571 C50.0266057,6.60973714 50.0750629,6.49088 50.1244343,6.37202286 C50.1637486,6.26962286 50.2048914,6.16630857 50.2432914,6.06299429 C50.2789486,5.96973714 50.3136914,5.87648 50.3466057,5.78322286 C50.3612343,5.74116571 50.3840914,5.69728 50.3941486,5.65430857 C50.5687771,4.82230857 50.55232,3.92265143 50.3018057,3.10710857" id="Fill-3" fill="#104520"></path>
                    <path d="M41.6464457,29.0964114 C42.1429029,29.0570971 42.6622171,29.0205257 43.1495314,29.0305829 C43.5509029,29.0388114 44.3024457,28.3640686 42.3742171,28.1729829 C40.1150171,27.9498971 37.4901029,28.24704 37.4864457,28.2479543 C37.4864457,28.2479543 37.48736,28.2479543 37.4864457,28.2479543 C38.8459886,28.22784 39.25376,29.2911543 41.6464457,29.0964114" id="Fill-5" fill="#104520"></path>
                    <path d="M37.4866286,28.2473143 C37.4875429,28.2473143 37.4866286,28.2473143 37.4866286,28.2473143 C37.4838857,28.2473143 37.4802286,28.2464 37.4866286,28.2473143" id="Fill-7" fill="#104520"></path>
                    <path d="M38.84736,29.5893029 C38.8464457,29.5874743 38.8446171,29.5856457 38.8437029,29.5838171 C38.8747886,29.5746743 38.90496,29.56736 38.9296457,29.5600457 C38.90496,29.5682743 38.8775314,29.5774171 38.84736,29.5893029" id="Fill-9" fill="#104520"></path>
                    <path d="M16.6683429,46.7160686 C16.352,46.3896686 16.0877714,46.0138971 15.8098286,45.6664686 C15.4989714,45.2495543 15.1862857,44.8417829 14.9284571,44.4184686 C14.6660571,43.9978971 14.4210286,43.58464 14.2162286,43.1786971 C14.0059429,42.7745829 13.8294857,42.3832686 13.6685714,42.01664 C13.5177143,41.6490971 13.3824,41.3080686 13.2763429,41.0008686 C13.1712,40.6945829 13.0816,40.4239543 13.0166857,40.1981257 C12.8850286,39.7492114 12.8301714,39.4840686 12.8301714,39.4840686 C12.8301714,39.4840686 12.8137143,39.7546971 12.8585143,40.2264686 C12.9005714,40.6973257 13.0029714,41.3711543 13.2269714,42.1592686 C13.3430857,42.5524114 13.4747429,42.9784686 13.6603429,43.4136686 C13.7444571,43.6340114 13.8514286,43.8525257 13.9510857,44.0810971 C14.0617143,44.3041829 14.1732571,44.5327543 14.3058286,44.7567543 C14.3698286,44.87104 14.4347429,44.9844114 14.4996571,45.0986971 C14.5709714,45.2111543 14.6413714,45.3245257 14.7117714,45.4378971 C14.8498286,45.6682971 15.0144,45.8868114 15.1762286,46.1098971 C15.2347429,46.1876114 15.2969143,46.26624 15.3554286,46.3412114 C14.4704,45.2916114 10.3661714,40.4532114 11.8875429,33.9754971 C11.8875429,33.9754971 9.46834286,37.7341257 11.6534857,42.1912686 L11.648,42.18944 C10.6468571,40.4532114 9.79291429,37.9069257 9.41897143,35.0689829 C8.57142857,28.6351543 13.3696,25.7935543 13.2699429,25.8218971 C8.128,27.2893257 8.24685714,33.7725257 8.25325714,33.9480686 C8.12342857,33.1242971 8.032,32.3645257 7.93508571,31.3313829 C7.93508571,31.3313829 7.92502857,31.0644114 7.91588571,30.9053257 C7.8976,30.5844114 7.88937143,30.1162971 7.92502857,29.5530971 C7.9424,29.2696686 7.96982857,28.9642971 8.01371429,28.6415543 C8.05394286,28.3188114 8.11611429,27.9805257 8.1856,27.6303543 C8.26331429,27.28384 8.34742857,26.9236114 8.4608,26.5652114 C8.56685714,26.2040686 8.6976,25.8456686 8.83748571,25.4881829 C8.9856,25.1352686 9.14194286,24.7832686 9.3184,24.4477257 C9.40708571,24.2804114 9.49211429,24.1130971 9.58994286,23.9540114 C9.6832,23.7930971 9.77645714,23.6340114 9.87794286,23.4831543 C9.97577143,23.3313829 10.0726857,23.1805257 10.1778286,23.04064 C10.2802286,22.8989257 10.3771429,22.7562971 10.4832,22.6282971 C10.5883429,22.4975543 10.6852571,22.3668114 10.7894857,22.2479543 C10.8928,22.1290971 10.9924571,22.0138971 11.0902857,21.9041829 C11.2905143,21.6920686 11.4752,21.4945829 11.6498286,21.3309257 C11.8244571,21.1700114 11.9725714,21.0209829 12.1051429,20.9112686 C12.3693714,20.6890971 12.5193143,20.5620114 12.5193143,20.5620114 C12.5193143,20.5620114 12.3556571,20.6708114 12.0676571,20.8628114 C11.9213714,20.9560686 11.7577143,21.0868114 11.5620571,21.22944 C11.3682286,21.3729829 11.1597714,21.5503543 10.9312,21.7423543 C10.8205714,21.8429257 10.7053714,21.9471543 10.5856,22.05504 C10.4667429,22.16384 10.3524571,22.28544 10.2299429,22.4061257 C10.1056,22.5258971 9.98948571,22.6593829 9.86788571,22.7919543 C9.74354286,22.9245257 9.6256,23.0671543 9.50674286,23.2125257 C9.38422857,23.3560686 9.26902857,23.5096686 9.152,23.6650971 C9.03314286,23.8186971 8.92342857,23.9823543 8.81097143,24.1460114 C8.58697143,24.47424 8.38034286,24.8225829 8.18194286,25.1764114 C7.99177143,25.5348114 7.80891429,25.8977829 7.65257143,26.2671543 C7.48891429,26.6346971 7.35542857,27.0058971 7.22925714,27.3679543 C7.11131429,27.73184 7.00251429,28.0874971 6.91931429,28.4303543 C6.85165714,28.6945829 6.80777143,29.2212114 6.79588571,29.5384686 C6.80685714,29.36384 6.72365714,29.08864 6.71908571,29.0776686 C6.64411429,28.8436114 6.54994286,28.6049829 6.43017143,28.37184 C6.37348571,28.2548114 6.31131429,28.1377829 6.23817143,28.02624 C6.17234286,27.9101257 6.09371429,27.80224 6.01234286,27.6943543 C5.67131429,27.27744 5.22697143,26.95744 4.78354286,26.7608686 C4.34011429,26.5624686 3.90034286,26.4829257 3.53097143,26.4573257 C3.16068571,26.43264 2.85531429,26.4618971 2.64685714,26.4929829 C2.43748571,26.5231543 2.32045714,26.5578971 2.32045714,26.5578971 C5.52045714,27.1585829 6.64411429,29.9380114 7.17348571,31.7455543 L7.35817143,32.5181257 C7.64525714,33.9005257 8.03565714,35.4063543 8.48457143,36.7146971 C8.47542857,36.7009829 8.4672,36.6872686 8.45714286,36.6753829 L8.42148571,36.6296686 C5.79382857,33.0557257 2.1632,35.4703543 2.1632,35.4703543 C2.5664,35.3834971 3.04182857,35.3935543 3.45417143,35.3889829 C3.86011429,35.3844114 4.26605714,35.41184 4.66285714,35.4922971 C5.42537143,35.64864 6.15771429,35.8324114 6.76114286,36.2932114 C7.35908571,36.7476114 8.03565714,37.4013257 8.40594286,37.9965257 C8.75885714,38.5615543 9.1328,39.0863543 9.47382857,39.6577829 C9.77462857,40.1642971 10.0809143,40.6625829 10.3533714,41.1818971 C10.368,41.2093257 10.3972571,41.25504 10.4173714,41.2897829 C10.6834286,41.7313829 10.9714286,42.1592686 11.2886857,42.5688686 C11.6736,43.0625829 12.1426286,43.5188114 12.6089143,43.9585829 C12.8521143,44.1999543 13.0788571,44.4093257 13.2452571,44.5592686 C13.5872,44.9533257 13.9684571,45.3492114 14.4009143,45.7441829 C14.3296,45.6957257 14.2601143,45.6472686 14.1869714,45.6015543 C13.8697143,45.3967543 13.5222857,45.2349257 13.1913143,45.12704 C12.8594286,45.0145829 12.5376,44.9505829 12.2422857,44.9076114 C11.9460571,44.8618971 11.6736,44.8500114 11.4349714,44.84544 C11.1945143,44.83904 10.9851429,44.8545829 10.816,44.8664686 C10.6450286,44.87744 10.5115429,44.8984686 10.4210286,44.9103543 C10.3305143,44.9231543 10.2848,44.9332114 10.2829714,44.9304686 C10.2829714,44.9304686 10.2948571,44.9341257 10.3186286,44.9377829 C10.3405714,44.9423543 10.3771429,44.9450971 10.4210286,44.9524114 C10.5106286,44.9679543 10.6413714,44.9871543 10.8077714,45.0136686 C11.1387429,45.06944 11.6086857,45.1608686 12.1389714,45.32544 C12.4050286,45.4077257 12.6829714,45.5183543 12.9627429,45.6490971 C13.0998857,45.71584 13.2397714,45.7908114 13.3723429,45.8712686 C13.4491429,45.9169829 13.5113143,45.9608686 13.5716571,46.0047543 C13.6365714,46.0504686 13.7051429,46.0970971 13.7700571,46.1482971 C14.0342857,46.3540114 14.2994286,46.5880686 14.5746286,46.8330971 C14.8498286,47.0772114 15.1369143,47.32864 15.4349714,47.5709257 C15.7357714,47.8113829 20.5412571,51.8287543 26.6358857,52.5537829 C24.7533714,52.0308114 19.5702857,50.2525257 16.6683429,46.7160686" id="Fill-11" fill="#104520"></path>
                    <path d="M43.3526857,46.7160686 C43.6699429,46.3896686 43.9341714,46.0138971 44.2102857,45.6664686 C44.5229714,45.2495543 44.8356571,44.8417829 45.0934857,44.4184686 C45.3549714,43.9978971 45.6,43.58464 45.8057143,43.1786971 C46.0150857,42.7745829 46.1924571,42.3832686 46.3524571,42.01664 C46.5033143,41.6490971 46.6386286,41.3080686 46.7456,41.0008686 C46.8489143,40.6945829 46.9403429,40.4239543 47.0034286,40.1981257 C47.1369143,39.7492114 47.1908571,39.4840686 47.1908571,39.4840686 C47.1908571,39.4840686 47.2082286,39.7546971 47.1625143,40.2264686 C47.1213714,40.6973257 47.0189714,41.3711543 46.7949714,42.1592686 C46.6788571,42.5524114 46.5472,42.9784686 46.3616,43.4136686 C46.2765714,43.6340114 46.1705143,43.8525257 46.0708571,44.0810971 C45.9602286,44.3041829 45.8477714,44.5327543 45.7161143,44.7567543 C45.6521143,44.87104 45.5862857,44.9844114 45.5204571,45.0986971 C45.4509714,45.2111543 45.3805714,45.3245257 45.3101714,45.4378971 C45.1712,45.6682971 45.0066286,45.8868114 44.8466286,46.1098971 C44.7862857,46.1876114 44.7250286,46.26624 44.6665143,46.3412114 C45.5506286,45.2916114 49.6557714,40.4532114 48.1334857,33.9754971 C48.1334857,33.9754971 50.5526857,37.7341257 48.3675429,42.1912686 L48.3730286,42.18944 C49.3750857,40.4532114 50.2290286,37.9069257 50.6038857,35.0689829 C51.4505143,28.6351543 46.6514286,25.7935543 46.7529143,25.8218971 C51.8939429,27.2893257 51.7750857,33.7725257 51.7686857,33.9480686 C51.8985143,33.1242971 51.9899429,32.3645257 52.0859429,31.3313829 C52.0859429,31.3313829 52.096,31.0644114 52.1051429,30.9053257 C52.1234286,30.5844114 52.1325714,30.1162971 52.096,29.5530971 C52.0786286,29.2696686 52.0521143,28.9642971 52.0073143,28.6415543 C51.968,28.3188114 51.9049143,27.9805257 51.8354286,27.6303543 C51.7577143,27.28384 51.6736,26.9236114 51.5611429,26.5652114 C51.4550857,26.2040686 51.3234286,25.8456686 51.1835429,25.4881829 C51.0363429,25.1352686 50.88,24.7832686 50.7035429,24.4477257 C50.6139429,24.2804114 50.5298286,24.1130971 50.4310857,23.9540114 C50.3387429,23.7930971 50.2454857,23.6340114 50.144,23.4831543 C50.0452571,23.3313829 49.9492571,23.1805257 49.8441143,23.04064 C49.7417143,22.8989257 49.6457143,22.7562971 49.5387429,22.6282971 C49.4326857,22.4975543 49.3366857,22.3668114 49.2333714,22.2479543 C49.1282286,22.1290971 49.0276571,22.0138971 48.9316571,21.9041829 C48.7314286,21.6920686 48.5458286,21.4945829 48.3721143,21.3309257 C48.1974857,21.1700114 48.0493714,21.0209829 47.9158857,20.9112686 C47.6525714,20.6890971 47.5017143,20.5620114 47.5017143,20.5620114 C47.5017143,20.5620114 47.6662857,20.6708114 47.9542857,20.8628114 C48.1005714,20.9560686 48.2633143,21.0868114 48.4598857,21.22944 C48.6537143,21.3729829 48.8621714,21.5503543 49.0898286,21.7423543 C49.2013714,21.8429257 49.3156571,21.9471543 49.4354286,22.05504 C49.5552,22.16384 49.6685714,22.28544 49.792,22.4061257 C49.9163429,22.5258971 50.0324571,22.6593829 50.1531429,22.7919543 C50.2784,22.9245257 50.3954286,23.0671543 50.5142857,23.2125257 C50.6377143,23.3560686 50.7529143,23.5096686 50.8690286,23.6650971 C50.9888,23.8186971 51.0985143,23.9823543 51.2100571,24.1460114 C51.4349714,24.47424 51.6416,24.8225829 51.8390857,25.1764114 C52.0292571,25.5348114 52.2130286,25.8977829 52.3684571,26.2671543 C52.5330286,26.6346971 52.6665143,27.0058971 52.7917714,27.3679543 C52.9106286,27.73184 53.0185143,28.0874971 53.1026286,28.4303543 C53.1693714,28.6945829 53.2141714,29.2212114 53.2260571,29.5384686 C53.2150857,29.36384 53.2982857,29.08864 53.3028571,29.0776686 C53.3778286,28.8436114 53.4710857,28.6049829 53.5899429,28.37184 C53.6484571,28.2548114 53.7097143,28.1377829 53.7828571,28.02624 C53.8496,27.9101257 53.9273143,27.80224 54.0086857,27.6943543 C54.3497143,27.27744 54.7949714,26.95744 55.2374857,26.7608686 C55.68,26.5624686 56.1216,26.4829257 56.4900571,26.4573257 C56.8612571,26.43264 57.1657143,26.4618971 57.3750857,26.4929829 C57.5835429,26.5231543 57.7005714,26.5578971 57.7005714,26.5578971 C54.5005714,27.1585829 53.3778286,29.9380114 52.8484571,31.7455543 L52.6637714,32.5181257 C52.3757714,33.9005257 51.9862857,35.4063543 51.5364571,36.7146971 C51.5465143,36.7009829 51.5547429,36.6872686 51.5638857,36.6753829 L51.5995429,36.6296686 C54.2281143,33.0557257 57.8569143,35.4703543 57.8569143,35.4703543 C57.4555429,35.3834971 56.9792,35.3935543 56.5668571,35.3889829 C56.1618286,35.3844114 55.7549714,35.41184 55.3590857,35.4922971 C54.5965714,35.64864 53.8633143,35.8324114 53.2608,36.2932114 C52.6628571,36.7476114 51.9862857,37.4013257 51.616,37.9965257 C51.2621714,38.5615543 50.8882286,39.0863543 50.5472,39.6577829 C50.2473143,40.1642971 49.9392,40.6625829 49.6676571,41.1818971 C49.6539429,41.2093257 49.6237714,41.25504 49.6045714,41.2897829 C49.3385143,41.7313829 49.0505143,42.1592686 48.7323429,42.5688686 C48.3483429,43.0625829 47.8793143,43.5188114 47.4121143,43.9585829 C47.1698286,44.1999543 46.944,44.4093257 46.7757714,44.5592686 C46.4338286,44.9533257 46.0525714,45.3492114 45.6210286,45.7441829 C45.6923429,45.6957257 45.7618286,45.6472686 45.8349714,45.6015543 C46.1531429,45.3967543 46.4987429,45.2349257 46.8306286,45.12704 C47.1606857,45.0145829 47.4843429,44.9505829 47.7796571,44.9076114 C48.0740571,44.8618971 48.3483429,44.8500114 48.5869714,44.84544 C48.8274286,44.83904 49.0358857,44.8545829 49.2059429,44.8664686 C49.3769143,44.87744 49.5094857,44.8984686 49.6,44.9103543 C49.6914286,44.9231543 49.7362286,44.9332114 49.7380571,44.9304686 C49.7380571,44.9304686 49.7270857,44.9341257 49.7033143,44.9377829 C49.6804571,44.9423543 49.6448,44.9450971 49.6,44.9524114 C49.5113143,44.9679543 49.3805714,44.9871543 49.2123429,45.0136686 C48.8832,45.06944 48.4132571,45.1608686 47.8820571,45.32544 C47.6169143,45.4077257 47.3389714,45.5183543 47.0592,45.6490971 C46.9220571,45.71584 46.7812571,45.7908114 46.6486857,45.8712686 C46.5728,45.9169829 46.5106286,45.9608686 46.4493714,46.0047543 C46.3844571,46.0504686 46.3168,46.0970971 46.2509714,46.1482971 C45.9876571,46.3540114 45.7225143,46.5880686 45.4464,46.8330971 C45.1712,47.0772114 44.8850286,47.32864 44.5869714,47.5709257 C44.2861714,47.8113829 39.4806857,51.8287543 33.3860571,52.5537829 C35.2685714,52.0308114 40.4498286,50.2525257 43.3526857,46.7160686" id="Fill-13" fill="#104520"></path>
                    <g id="Group-17" transform="translate(0.000000, 38.428617)">
                        <mask id="mask-2" fill="white">
                            <use xlink:href="#path-1"></use>
                        </mask>
                        <g id="Clip-16"></g>
                        <path d="M3.95318857,6.41334857 C3.76484571,6.12900571 3.44484571,6.08420571 2.99410286,6.27894857 L1.48278857,6.92809143 C1.03936,6.50752 0.643474286,5.89220571 0.295131429,5.08306286 C-0.0824685714,4.20717714 -0.0980114286,3.39163429 0.248502857,2.63643429 C0.561188571,1.95346286 1.09513143,1.45060571 1.84941714,1.12512 C2.65216,0.77952 3.45124571,0.745691429 4.24301714,1.02272 C5.11981714,1.32992 5.77078857,1.97632 6.19501714,2.96192 C6.47296,3.60557714 6.59181714,4.17700571 6.55341714,4.67712 L4.91776,5.38112 C5.23410286,5.11506286 5.42610286,4.78134857 5.49467429,4.37906286 C5.56141714,4.00420571 5.51204571,3.62477714 5.34564571,3.23986286 C5.11067429,2.69494857 4.72850286,2.34020571 4.19821714,2.17837714 C3.66793143,2.01563429 3.11021714,2.05860571 2.52598857,2.31094857 C1.95364571,2.55780571 1.53856,2.91894857 1.28164571,3.39529143 C1.01376,3.89540571 0.990902857,4.40466286 1.21398857,4.92123429 C1.31638857,5.15803429 1.44347429,5.36100571 1.59433143,5.53106286 L2.47753143,5.14980571 C2.93558857,4.95323429 3.12758857,4.67986286 3.05627429,4.33334857 L3.95318857,6.41334857 Z" id="Fill-15" fill="#104520" mask="url(#mask-2)"></path>
                    </g>
                    <path d="M7.74784,51.14112 L6.01435429,52.1422629 L3.43515429,48.9312914 C3.67012571,49.11872 4.05412571,48.9989486 4.58715429,48.5701486 L7.59424,46.1546057 C8.06601143,45.7751771 8.22784,45.4423771 8.08155429,45.1525486 L9.46029714,46.8704914 C9.21161143,46.65472 8.84864,46.7406629 8.37138286,47.12192 L5.13206857,49.7230629 L5.91561143,50.6986057 C6.14784,50.9884343 6.41755429,51.1639771 6.72109714,51.2279771 C6.99264,51.2864914 7.33458286,51.2581486 7.74784,51.14112" id="Fill-18" fill="#104520"></path>
                    <path d="M12.8495543,55.8741029 L11.4634971,57.0992457 L8.26258286,54.4789029 C8.56886857,54.6443886 8.92726857,54.4770743 9.33686857,53.9760457 L11.8209829,50.9415314 C12.19584,50.48256 12.2543543,50.1013029 11.9928686,49.7941029 L15.1736686,52.3970743 L14.0911543,53.7191314 C14.3773257,53.1787886 14.2922971,52.7216457 13.8324114,52.3458743 L12.9272686,51.6053029 L11.8237257,52.9547886 L12.6100114,53.5984457 C12.9290971,53.8608457 13.2116114,53.8901029 13.4548114,53.6853029 L12.3503543,55.0366171 C12.5021257,54.7650743 12.4207543,54.50176 12.1053257,54.2430171 L11.3044114,53.5874743 L10.1716114,54.9726171 L11.1444114,55.7570743 C11.4223543,55.9856457 11.6948114,56.1072457 11.9599543,56.1218743 C12.2260114,56.1392457 12.52224,56.0560457 12.8495543,55.8741029" id="Fill-20" fill="#104520"></path>
                    <path d="M22.5665829,56.1794743 C22.2456686,56.10176 21.9594971,56.33216 21.7071543,56.86976 L19.5850971,61.3954743 L18.7384686,60.9986743 C18.74944,60.8450743 18.7521829,60.67776 18.7439543,60.4958171 C18.7247543,60.0706743 18.6570971,59.62176 18.5400686,59.1499886 L17.7629257,56.08896 L16.4673829,58.85376 C16.2186971,59.3840457 16.24704,59.7579886 16.5560686,59.9755886 L14.7247543,59.1170743 C15.0356114,59.1893029 15.3153829,58.9579886 15.56864,58.4194743 L17.2436114,54.8464457 C17.3661257,54.5858743 17.3588114,54.29696 17.2216686,53.9824457 C17.1503543,53.8087314 17.05984,53.66336 16.9492114,53.5463314 L18.6753829,54.3554743 L19.7386971,58.7559314 L20.8193829,56.4528457 C21.0717257,55.91616 21.0570971,55.54496 20.7754971,55.34016 L22.5665829,56.1794743 Z" id="Fill-22" fill="#104520"></path>
                    <path d="M28.9272686,61.1758629 L28.4810971,62.9696914 L24.3585829,62.6277486 C24.7050971,62.5902629 24.9044114,62.2492343 24.9583543,61.6037486 L25.2829257,57.6970057 C25.3313829,57.1054629 25.16224,56.75712 24.7736686,56.6538057 L28.8687543,56.9930057 L28.72704,58.6954057 C28.6575543,58.08832 28.3265829,57.7600914 27.7359543,57.71072 L26.57024,57.6138057 L26.4266971,59.3518629 L27.4388114,59.4368914 C27.8511543,59.47072 28.09984,59.3354057 28.1857829,59.02912 L28.0413257,60.7690057 C28.0129829,60.4581486 27.7953829,60.2871771 27.38944,60.2533486 L26.35904,60.1674057 L26.2109257,61.9511771 L27.4570971,62.0453486 C27.8145829,62.0746057 28.1080686,62.0215771 28.3357257,61.88352 C28.5642971,61.7472914 28.7608686,61.5104914 28.9272686,61.1758629" id="Fill-24" fill="#104520"></path>
                    <path d="M38.48128,62.1232457 L36.0373943,62.4898743 C36.2869943,62.4158171 36.3930514,62.2603886 36.3583086,62.0245029 C36.3509943,61.9760457 36.2760229,61.8206171 36.1343086,61.5582171 L35.9194514,61.1623314 L33.5816229,61.5143314 L33.4911086,61.94496 C33.4426514,62.1826743 33.4243657,62.3463314 33.4371657,62.4359314 C33.47648,62.6965029 33.6346514,62.82176 33.9125943,62.8098743 L31.8847086,63.1143314 C31.9651657,63.08416 32.0437943,63.0229029 32.1205943,62.9333029 C32.30528,62.7056457 32.4533943,62.3408457 32.5649371,61.8389029 L33.7251657,56.7819886 L34.7738514,56.6238171 L37.4435657,61.1431314 C37.8175086,61.7776457 38.1640229,62.1040457 38.48128,62.1232457 L38.48128,62.1232457 Z M35.5007086,60.4336457 L34.2682514,58.27776 L33.7599086,60.6951314 L35.5007086,60.4336457 Z" id="Fill-26" fill="#104520"></path>
                    <path d="M51.4509714,52.3902171 L52.5170286,54.0853029 L49.4075429,56.7842743 C49.5858286,56.5419886 49.4514286,56.16256 49.0025143,55.6469029 L46.4745143,52.7330743 C46.0777143,52.2768457 45.7376,52.1278171 45.4532571,52.2869029 L47.1181714,50.8423314 C46.9124571,51.0992457 47.0102857,51.45856 47.4107429,51.9202743 L50.1353143,55.0581029 L51.0779429,54.2379886 C51.3586286,53.9947886 51.5241143,53.7186743 51.5771429,53.4123886 C51.6256,53.1399314 51.5844571,52.7989029 51.4509714,52.3902171" id="Fill-28" fill="#104520"></path>
                    <path d="M44.8768,56.4312686 C44.6134857,56.6461257 44.6006857,56.9697829 44.8402286,57.3985829 L45.6402286,58.8367543 C45.2644571,59.3194971 44.6921143,59.7757257 43.9222857,60.2045257 C43.0893714,60.6680686 42.2793143,60.7658971 41.4921143,60.4970971 C40.7817143,60.2557257 40.2249143,59.7748114 39.8262857,59.0580114 C39.4002286,58.2927543 39.2859429,57.5018971 39.4834286,56.68544 C39.7010286,55.78304 40.2788571,55.0708114 41.2150857,54.54784 C41.8294857,54.2068114 42.3853714,54.0303543 42.8864,54.0193829 L43.7531429,55.5745829 C43.4550857,55.2884114 43.104,55.13024 42.6971429,55.1037257 C42.3177143,55.0744686 41.9446857,55.1613257 41.5789714,55.3652114 C41.0596571,55.6541257 40.7451429,56.07104 40.6372571,56.61504 C40.5284571,57.15904 40.6290286,57.7085257 40.9380571,58.2644114 C41.2406857,58.8084114 41.6438857,59.1860114 42.144,59.3935543 C42.6678857,59.6093257 43.1771429,59.5800686 43.6699429,59.3066971 C43.8939429,59.1805257 44.0832,59.03424 44.2377143,58.8660114 L43.7686857,58.0248686 C43.5264,57.5914971 43.2365714,57.4269257 42.8982857,57.5329829 L44.8768,56.4312686 Z" id="Fill-30" fill="#104520"></path>
                    <path d="M55.9804343,47.06432 L57.2805486,48.3799771 L54.8430629,51.7207771 C54.9902629,51.4062629 54.8028343,51.05792 54.2798629,50.6766629 L51.1127771,48.3662629 C50.6336914,48.0160914 50.2478629,47.9804343 49.95712,48.2574629 L52.3790629,44.9386057 L53.75872,45.94432 C53.2037486,45.68832 52.7520914,45.7989486 52.40192,46.2789486 L51.7125486,47.2224914 L53.1223771,48.2519771 L53.7212343,47.4300343 C53.9644343,47.09632 53.9790629,46.8128914 53.7614629,46.5824914 L55.1703771,47.6092343 C54.8924343,47.4730057 54.6318629,47.56992 54.3932343,47.8981486 L53.7834057,48.7338057 L55.2288914,49.7879771 L55.9575771,48.77312 C56.1696914,48.4832914 56.2766629,48.20352 56.2775771,47.9383771 C56.2784914,47.67232 56.1806629,47.3815771 55.9804343,47.06432" id="Fill-32" fill="#104520"></path>
                    <path d="M59.3750857,40.6071771 C59.9081143,40.80832 60.2528,41.1612343 60.4073143,41.6677486 C60.5545143,42.14592 60.5133714,42.68992 60.2838857,43.3015771 C60.048,43.9306057 59.7078857,44.4106057 59.2635429,44.7434057 L57.4797714,44.0741486 C58.0009143,44.1162057 58.4434286,44.0229486 58.8036571,43.7925486 C59.1154286,43.5968914 59.3376,43.3180343 59.4710857,42.9578057 C59.568,42.6999771 59.5899429,42.4650057 59.5350857,42.2528914 C59.4802286,42.0398629 59.3558857,41.8972343 59.1593143,41.8231771 C58.9060571,41.7280914 58.6272,41.7829486 58.32,41.9886629 C58.2596571,42.0298057 57.9762286,42.2720914 57.4706286,42.7164343 C57.1369143,43.0080914 56.8452571,43.2028343 56.5974857,43.3006629 C56.2436571,43.4442057 55.8852571,43.4460343 55.5186286,43.3088914 C55.0093714,43.1178057 54.6701714,42.7850057 54.5028571,42.3077486 C54.3364571,41.8332343 54.3602286,41.3084343 54.5741714,40.7360914 C54.7707429,40.2140343 55.0605714,39.8236343 55.4454857,39.5639771 L56.9266286,40.1216914 C56.5316571,40.1006629 56.1924571,40.1948343 55.9099429,40.4014629 C55.6594286,40.5760914 55.4756571,40.8183771 55.3586286,41.1264914 C55.2626286,41.3852343 55.2470857,41.6028343 55.3156571,41.7820343 C55.3824,41.9612343 55.5003429,42.08192 55.6676571,42.14592 C55.9428571,42.24832 56.2811429,42.1230629 56.6834286,41.76832 C57.3645714,41.1658057 57.7467429,40.8384914 57.8290286,40.7863771 C58.3318857,40.4700343 58.8475429,40.4096914 59.3750857,40.6071771" id="Fill-34" fill="#104520"></path>
                    <path d="M33.9759543,46.6875429 C34.2200686,46.6537143 34.3882971,46.4059429 34.6506971,46.4379429 C34.72384,46.4470857 34.8244114,46.4626286 34.8810971,46.4022857 C34.92864,46.3529143 34.9140114,46.2715429 34.8829257,46.2166857 C34.8289829,46.1243429 34.7466971,46.0448 34.6570971,45.9835429 C34.5153829,45.8866286 34.3343543,45.8482286 34.2017829,45.7330286 C34.1770971,45.7110857 34.14784,45.6717714 34.1633829,45.6370286 C34.2237257,45.4816 34.7055543,45.7970286 34.7631543,45.8262857 C34.9697829,45.9314286 35.5805257,45.7165714 35.3866971,45.4569143 C35.2705829,45.3014857 35.01824,45.3737143 34.8509257,45.3590857 C34.6762971,45.3435429 34.4980114,45.3481143 34.3224686,45.3252571 C34.2328686,45.3142857 34.1066971,45.2987429 34.0308114,45.2402286 C33.95584,45.1826286 34.0335543,45.0912 34.0984686,45.0729143 C34.1688686,45.0555429 34.2484114,45.0747429 34.3169829,45.0921143 C34.3663543,45.1030857 34.4120686,45.1213714 34.4596114,45.136 C34.6013257,45.1808 34.9597257,45.2969143 35.0648686,45.1350857 C35.1572114,44.9961143 34.9789257,44.7675429 34.83264,44.752 C34.6717257,44.7309714 34.5226971,44.8370286 34.3626971,44.848 C34.2520686,44.8571429 34.1304686,44.8269714 34.02624,44.7949714 C33.9421257,44.7675429 33.8607543,44.7245714 33.80224,44.6587429 C33.7354971,44.5846857 33.7016686,44.4877714 33.6522971,44.4018286 C33.6010971,44.3104 33.5434971,44.2235429 33.4932114,44.1330286 C33.3752686,43.9254857 33.29024,43.7033143 33.21984,43.4765714 C33.0058971,42.8018286 32.9565257,42.3328 32.9610971,42.3163429 C32.9400686,42.4114286 32.9044114,42.7076571 32.54784,43.2050286 C32.4426971,43.3522286 32.3165257,43.4802286 32.2040686,43.6210286 C32.0449829,43.8139429 31.9233829,44.0726857 31.9242971,44.3268571 C31.9252114,44.3670857 31.9279543,44.4054857 31.93344,44.4448 C31.9370971,44.4713143 31.95264,44.5417143 31.9553829,44.5645714 C31.9553829,44.5645714 32.15104,44.0352 32.5834971,43.9702857 C32.7764114,43.9620571 32.9272686,44.0662857 33.0058971,44.2363429 C33.0863543,44.4100571 33.1640686,44.6459429 33.1247543,44.8388571 C33.1082971,44.9184 33.0570971,45.0308571 32.9921829,45.0838857 C32.7946971,45.2466286 32.5359543,45.1524571 32.31104,45.1277714 C32.11904,45.1058286 31.76704,45.1369143 31.8868114,45.424 C31.9754971,45.6388571 32.2900114,45.8326857 32.5194971,45.7833143 C32.6474971,45.7540571 32.7535543,45.6708571 32.8596114,45.5968 C33.0250971,45.4797714 33.2490971,45.4322286 33.4410971,45.5136 C33.5837257,45.5739429 33.6980114,45.7056 33.6906971,45.8683429 C33.6879543,45.9451429 33.6660114,46.0347429 33.6349257,46.1051429 C33.5800686,46.224 33.5700114,46.3766857 33.6285257,46.4955429 C33.6925257,46.6290286 33.82784,46.7085714 33.9759543,46.6875429" id="Fill-36" fill="#104520"></path>
                    <path d="M31.6535771,45.3348571 C30.6634057,46.0306286 31.3317486,46.8589714 31.3317486,46.8589714 C31.1598629,46.1321143 32.09152,45.8486857 32.09152,45.8486857 C31.6672914,45.6704 31.6535771,45.3348571 31.6535771,45.3348571" id="Fill-38" fill="#104520"></path>
                    <path d="M34.2232686,46.8151771 C34.2232686,46.8151771 34.6154971,47.7047771 33.4717257,47.8474057 C33.4717257,47.8474057 35.04064,48.0074057 34.8586971,46.6268343 C34.8586971,46.6268343 34.5112686,46.5034057 34.2232686,46.8151771" id="Fill-40" fill="#104520"></path>
                    <path d="M34.9991314,45.9883886 C35.73056,46.8478171 34.9159314,47.4942171 34.9159314,47.4942171 C36.3147886,46.9758171 35.5303314,45.7342171 35.5303314,45.7342171 C35.3904457,46.02496 34.9991314,45.9883886 34.9991314,45.9883886" id="Fill-42" fill="#104520"></path>
                    <path d="M27.3526857,45.3660343 C27.2118857,45.2599771 27.0592,45.1703771 26.9211429,45.0588343 C26.8516571,45.0021486 26.7510857,44.9216914 26.7190857,44.8320914 C26.6852571,44.7424914 26.8004571,44.70592 26.8635429,44.7260343 C26.9348571,44.7479771 26.9915429,44.8074057 27.0409143,44.8567771 C27.0756571,44.8924343 27.1049143,44.9317486 27.1387429,44.9701486 C27.2356571,45.0816914 27.4779429,45.3706057 27.6534857,45.2901486 C27.8034286,45.2197486 27.7741714,44.9317486 27.6580571,44.84032 C27.5309714,44.73792 27.3481143,44.7479771 27.2064,44.67392 C27.1094857,44.6236343 27.0208,44.53312 26.9504,44.4508343 C26.8928,44.3840914 26.8470857,44.3054629 26.8315429,44.2167771 C26.8141714,44.1198629 26.8361143,44.0174629 26.8406857,43.9196343 C26.8443429,43.8154057 26.8416,43.7102629 26.8461714,43.6078629 C26.8571429,43.36832 26.9083429,43.1370057 26.9613714,42.9066057 C27.0125714,42.6807771 27.0646857,42.4549486 27.1524571,42.24192 C27.2210286,42.0773486 27.3088,41.9264914 27.4304,41.7966629 C27.4422857,41.7829486 27.4532571,41.7710629 27.4660571,41.7591771 C27.4660571,41.7591771 27.1049143,42.1230629 26.4201143,42.3653486 C26.2518857,42.42112 26.0754286,42.4650057 25.9108571,42.53632 C25.7499429,42.6058057 25.6,42.7127771 25.4866286,42.8471771 C25.4089143,42.9413486 25.3494857,43.0446629 25.3138286,43.1616914 C25.3138286,43.1616914 25.76,42.8160914 26.1595429,42.9879771 C26.2345143,43.0208914 26.3158857,43.1004343 26.3524571,43.1717486 C26.3981714,43.2567771 26.3936,43.3573486 26.3789714,43.4496914 C26.3497143,43.6352914 26.2939429,43.8766629 26.1586286,44.0156343 C26.1028571,44.0732343 26.0004571,44.1399771 25.9190857,44.1509486 C25.6667429,44.1838629 25.4966857,43.9671771 25.3184,43.8272914 C25.1675429,43.7093486 24.8512,43.5484343 24.8,43.8565486 C24.7652571,44.08512 24.928,44.4160914 25.1483429,44.4938057 C25.2736,44.5376914 25.408,44.5212343 25.536,44.5148343 C25.7380571,44.5038629 25.9529143,44.5824914 26.0745143,44.7525486 C26.1632,44.8796343 26.1906286,45.0506057 26.0982857,45.18592 C26.0553143,45.2480914 25.9904,45.31392 25.9254857,45.3559771 C25.8176,45.4282057 25.7270857,45.5534629 25.7142857,45.6860343 C25.6987429,45.83232 25.7718857,45.9722057 25.9081143,46.0325486 C26.1330286,46.13312 26.4073143,46.01152 26.6130286,46.1770057 C26.6697143,46.22272 26.7474286,46.2885486 26.8269714,46.26752 C26.8937143,46.2510629 26.9257143,46.1733486 26.9266286,46.1111771 C26.9293714,46.0042057 26.9019429,45.8926629 26.8580571,45.7948343 C26.7894857,45.6366629 26.6541714,45.5077486 26.6048,45.3404343 C26.5947429,45.3093486 26.5910857,45.2608914 26.6212571,45.23712 C26.7556571,45.1383771 26.9979429,45.65952 27.0317714,45.7152914 C27.1515429,45.9146057 27.7842286,46.0544914 27.7558857,45.7317486 C27.7394286,45.5397486 27.4870857,45.4666057 27.3526857,45.3660343" id="Fill-44" fill="#104520"></path>
                    <path d="M24.6513371,43.6571429 C23.4417371,43.7238857 23.57248,44.7808 23.57248,44.7808 C23.8101943,44.0722286 24.7509943,44.3245714 24.7509943,44.3245714 C24.4840229,43.9478857 24.6513371,43.6571429 24.6513371,43.6571429" id="Fill-46" fill="#104520"></path>
                    <path d="M26.6893714,46.4464457 C26.6893714,46.4464457 26.4589714,46.15936 26.0502857,46.2718171 C26.0502857,46.2718171 25.9131429,47.2327314 24.8662857,46.7499886 C24.8662857,46.7499886 26.1142857,47.71456 26.6893714,46.4464457" id="Fill-48" fill="#104520"></path>
                    <path d="M27.1451429,45.9786057 C27.3124571,47.0958629 26.2793143,47.2138057 26.2793143,47.2138057 C27.7421714,47.5127771 27.7302873,46.0426057 27.7302873,46.0426057 C27.4587429,46.21632 27.1451429,45.9786057 27.1451429,45.9786057" id="Fill-50" fill="#104520"></path>
                    <g id="Group-54" transform="translate(11.885714, 0.028617)">
                        <mask id="mask-4" fill="white">
                            <use xlink:href="#path-3"></use>
                        </mask>
                        <g id="Clip-53"></g>
                        <path d="M31.5295086,29.1543771 C31.4453943,29.12512 31.1034514,29.0986057 31.0577371,29.1872914 C31.0138514,29.2741486 30.92608,29.5237486 30.5603657,29.5237486 C30.19648,29.5237486 30.1992229,29.2503771 30.0968229,29.2503771 C29.9935086,29.2503771 28.11008,29.5392914 26.4917943,28.6414629 C25.7128229,28.20992 24.3688229,28.5930057 23.8019657,28.7886629 C23.7361371,28.8087771 23.6693943,28.8279771 23.6035657,28.8508343 C23.57248,28.8618057 23.5423086,28.87552 23.5112229,28.8874057 C23.73888,29.1159771 23.9921371,29.4378057 24.0351086,29.7642057 C24.1155657,30.3493486 23.58528,30.6190629 23.58528,30.6190629 C23.7425371,30.2944914 23.8559086,29.9644343 23.65568,29.6325486 C23.4627657,29.3143771 23.2159086,29.10592 23.0623086,28.94592 C21.74208,27.7948343 20.0479086,25.4213486 19.0467657,20.7274057 C18.9763657,20.4458057 18.9087086,20.1614629 18.83648,19.8798629 C18.7066514,19.3742629 18.5631086,18.8631771 18.4579657,18.3520914 C18.4104229,18.1253486 18.3519086,17.8976914 18.2403657,17.6938057 C18.1178514,17.4688914 17.9313371,17.3335771 17.7530514,17.1598629 C17.4485943,16.8654629 17.1267657,16.5930057 16.8259657,16.2967771 C16.4529371,15.9310629 16.0817371,15.5662629 15.7279086,15.1831771 C15.3685943,14.79552 15.0248229,14.3959771 14.7130514,13.9708343 L13.2053943,12.0855771 C13.2053943,12.0855771 7.61179429,5.71300571 5.68173714,0.885577143 C5.68173714,0.885577143 4.59556571,4.91666286 10.0986514,10.78272 C10.0986514,10.78272 12.4282514,13.48992 12.9155657,14.0421486 C12.9146514,14.0439771 12.9128229,14.0448914 12.91008,14.0458057 C12.3779657,13.56672 6.84470857,8.52717714 3.65385143,3.61289143 C3.65385143,3.61289143 2.66368,7.16123429 9.27762286,12.4238629 L12.64128,15.0469486 C12.64128,15.0469486 3.72608,9.02912 1.87465143,6.42157714 C1.87465143,6.42157714 1.84265143,8.81974857 5.72105143,11.8286629 C5.72105143,11.8286629 10.6947657,15.25632 12.1265371,15.9484343 C12.1265371,15.9484343 3.72608,12.06912 1.16699429,9.01266286 C1.16699429,9.01266286 1.13499429,13.0199771 12.48128,17.2842057 C12.48128,17.2842057 12.3258514,17.9114057 12.6376229,18.6528914 C12.6842514,18.76352 12.7199086,18.8732343 12.76928,18.9902629 C12.72448,18.9518629 12.6778514,18.9116343 12.6330514,18.87232 C12.4821943,18.7415771 12.3103086,18.59712 12.21248,18.4279771 C12.1045943,18.2396343 11.9848229,17.9946057 11.9381943,17.7824914 C11.9107657,17.6590629 11.89888,17.5255771 11.9061943,17.3994057 C11.9061943,17.3994057 7.23236571,15.8716343 0.739108571,11.5607771 C0.739108571,11.5607771 1.01156571,16.2629486 11.4399086,18.8704914 C11.4399086,18.8704914 11.4664229,19.4647771 11.95008,20.1322057 L12.0131657,20.2016914 C11.6291657,19.9575771 11.2579657,19.53792 11.2213943,19.1356343 C11.2213943,19.1356343 5.94779429,17.8474057 3.17933714,16.3022629 C3.17933714,16.3022629 4.27922286,19.8304914 10.95808,20.3296914 C10.95808,20.3296914 10.8776229,21.0602057 11.3704229,21.6279771 C11.02208,21.3710629 10.6929371,21.1095771 10.6673371,20.5994057 C10.6673371,20.5994057 7.83030857,20.5674057 4.85248,19.2791771 C4.85248,19.2791771 5.06185143,21.8702629 10.6298514,22.2405486 C10.6298514,22.2405486 10.6664229,22.91072 11.0933943,23.4501486 C10.8017371,23.3002057 10.5073371,22.96832 10.3528229,22.5788343 C10.3528229,22.5788343 7.16653714,22.3621486 5.52539429,21.3472914 C5.52539429,21.3472914 5.43670857,23.8999771 10.4744229,24.41472 C10.4744229,24.41472 10.6938514,24.8106057 11.18208,25.0090057 C10.7989943,25.0346057 10.6371657,24.9495771 10.38208,24.6716343 C10.38208,24.6716343 8.03145143,24.58112 6.29248,23.8405486 C6.29248,23.8405486 6.71945143,26.6346057 11.07968,26.5696914 C11.07968,26.5696914 9.24562286,26.9719771 7.39510857,26.5623771 C7.39510857,26.5623771 7.89430857,28.45312 11.6437943,28.0343771 C11.6437943,28.0343771 10.1955657,28.54912 8.65042286,28.42112 C8.65042286,28.42112 9.45499429,29.9498057 12.8506514,29.7239771 C12.8506514,29.7239771 10.7349943,30.1646629 9.96242286,29.9552914 C9.96242286,29.9552914 10.5649371,31.6714057 14.20288,31.1557486 C14.20288,31.1557486 12.6888229,31.7646629 10.98368,31.4272914 C10.98368,31.4272914 11.8687086,33.2330057 14.89408,32.5573486 C14.89408,32.5573486 14.6051657,33.0080914 12.51328,33.0720914 C12.51328,33.0720914 13.3013943,34.0860343 16.2783086,33.4890057 C16.2591086,33.4935771 16.2271086,33.5310629 16.2115657,33.5429486 C16.15488,33.5850057 16.0963657,33.62432 16.0378514,33.66272 C15.82848,33.7943771 15.6035657,33.8967771 15.3621943,33.9498057 C15.0879086,34.0110629 14.7935086,34.0375771 14.5109943,34.04672 C14.46528,34.0476343 14.42048,34.0485486 14.3747657,34.04672 L14.2915657,34.0412343 C14.2723657,34.0394057 14.2623086,34.0375771 14.2632229,34.0394057 L13.4303086,33.98912 C13.4303086,33.98912 9.68448,35.91552 8.74825143,36.2574629 C6.20836571,37.1836343 5.88196571,38.1984914 5.88196571,38.1984914 L11.4728229,35.6567771 C11.4728229,35.6567771 6.32082286,38.7671771 3.34390857,39.15392 C3.34390857,39.15392 4.24082286,40.5061486 6.84745143,39.0908343 C9.34802286,37.7322057 12.9923657,35.92832 13.3745371,35.7326629 L6.90413714,39.5178057 C6.90413714,39.5178057 8.15945143,40.0654629 10.5585371,38.3914057 C10.5585371,38.3914057 10.3647086,38.8412343 9.78505143,39.2599771 C9.78505143,39.2599771 11.2661943,39.4373486 12.6824229,38.1180343 C12.6824229,38.1180343 12.4675657,38.6126629 12.3112229,38.6976914 C12.3112229,38.6976914 12.5242514,38.72512 12.65408,38.7150629 C13.1057371,38.6830629 13.5281371,38.5294629 13.9231086,38.3292343 C14.3317943,38.1207771 14.7386514,37.9223771 15.1765943,37.7824914 C15.4435657,37.6956343 15.7160229,37.6261486 15.9903086,37.5722057 C16.0085943,37.5685486 16.02048,37.5658057 16.02048,37.5658057 C16.0095086,37.5685486 16.0003657,37.5712914 15.9903086,37.5722057 C15.8367086,37.6078629 15.0842514,37.8144914 14.3363657,38.5239771 C14.3400229,38.5221486 14.3445943,38.5221486 14.3482514,38.5212343 C14.2815086,38.5806629 14.2138514,38.6455771 14.1461943,38.7150629 C13.8051657,39.0816914 13.4751086,39.5616914 13.2163657,40.18432 C13.0810514,40.5134629 12.9594514,40.8855771 12.8625371,41.3116343 C12.8625371,41.3116343 13.93408,40.1495771 14.8867657,39.9776914 C14.8867657,39.9776914 13.19168,40.7045486 12.88448,42.84672 C12.88448,42.84672 13.3672229,42.3118629 14.32448,42.00192 C14.9233371,41.8090057 15.9061943,41.29792 16.7857371,40.6588343 C16.2581943,41.1351771 15.7233371,41.7898057 15.5459657,42.8512914 L20.1183086,38.08512 C19.2259657,39.0780343 18.4789943,40.6560914 19.2259657,43.6933486 C19.2259657,43.6933486 19.6099657,41.7285486 20.3733943,41.1680914 C20.3733943,41.1680914 19.3960229,43.3047771 19.7827657,44.2501486 C19.7891657,44.2638629 19.8120229,44.0416914 19.8915657,43.8039771 C20.0177371,43.4318629 20.2554514,43.1429486 20.5123657,42.8503771 C20.9247086,42.3831771 21.00608,41.7486629 21.12128,41.1589486 C21.1304229,41.1114057 21.1450514,41.0638629 21.1541943,41.0181486 C21.0801371,41.8528914 21.3891657,42.5751771 21.3891657,42.5751771 C21.5537371,41.7111771 21.7658514,40.8508343 22.0721371,40.0261486 C22.40768,39.1228343 22.8392229,38.2533486 23.3960229,37.4661486 C24.0378514,36.55552 25.0024229,35.9722057 25.8417371,35.2672914 C26.2659657,34.9116343 26.6719086,34.5312914 26.9800229,34.0668343 C27.2945371,33.5959771 27.44448,32.99712 27.8659657,32.6039771 C27.9656229,32.5125486 28.0616229,32.4156343 28.1631086,32.3269486 C28.3093943,32.19712 28.7381943,31.8807771 28.8433371,32.29312 C28.8927086,32.1440914 29.1496229,31.2508343 30.2001371,31.1237486 C30.2001371,31.1237486 29.6323657,30.9436343 29.8856229,30.7324343 C30.13888,30.5221486 31.6803657,29.2074057 31.5295086,29.1543771" id="Fill-52" fill="#104520" mask="url(#mask-4)"></path>
                    </g>
                    <polygon id="Fill-55" fill="#104520" points="30.3732114 52.5375086 31.9549257 50.9887086 31.9549257 54.1192229"></polygon>
                    <polygon id="Fill-57" fill="#104520" points="29.6487314 52.5705143 28.0670171 54.1193143 28.0670171 50.9888"></polygon>
                    <polygon id="Fill-59" fill="#104520" points="30.0151771 52.1910857 28.4654629 50.6093714 31.5959771 50.6093714"></polygon>
                    <polygon id="Fill-61" fill="#104520" points="30.04736 52.9161143 31.59616 54.4978286 28.4656457 54.4978286"></polygon>
                </g>
            </g>
        </g>
    </g>
</svg>