<?xml version="1.0" encoding="UTF-8"?>
<svg width="153px" height="16px" viewBox="0 0 153 16" version="1.1" xmlns="http://www.w3.org/2000/svg" xmlns:xlink="http://www.w3.org/1999/xlink">
    <!-- Generator: Sketch 59.1 (86144) - https://sketch.com -->
    <title>Glen logo</title>
    <desc>Created with Sketch.</desc>
    <defs>
        <polygon id="path-1" points="0.177111111 0.111111111 9.84355556 0.111111111 9.84355556 15.5555556 0.177111111 15.5555556"></polygon>
    </defs>
    <g id="Symbols" stroke="none" stroke-width="1" fill="none" fill-rule="evenodd">
        <g id="Nav/Mobile/Open" transform="translate(-111.000000, -24.000000)">
            <g id="Nav-01">
                <g id="Glen-logo" transform="translate(111.000000, 24.000000)">
                    <path d="M14.0668444,8.91102222 C13.2370667,9.05946667 12.8224,9.7408 12.8224,10.9554667 L12.8224,15.0221333 C11.4295111,15.6145778 9.64462222,15.9110222 7.46684444,15.9110222 C5.11128889,15.9110222 3.24462222,15.1479111 1.86684444,13.6221333 C0.6224,12.2443556 0.000177777778,10.5408 0.000177777778,8.51102222 C0.000177777778,6.34791111 0.703733333,4.50391111 2.11128889,2.97768889 C3.66684444,1.2888 5.7704,0.444355556 8.4224,0.444355556 C10.1557333,0.444355556 11.5704,0.733244444 12.6668444,1.31102222 L12.6668444,5.71102222 C12.3704,4.73324444 11.8001778,3.97057778 10.9557333,3.42213333 C10.1699556,2.90346667 9.25928889,2.64435556 8.2224,2.64435556 C6.75573333,2.64435556 5.57795556,3.16657778 4.68906667,4.21102222 C3.80017778,5.25546667 3.35573333,6.56302222 3.35573333,8.13324444 C3.35573333,9.67413333 3.7704,10.9705778 4.60017778,12.0221333 C5.47395556,13.1185778 6.60773333,13.6665778 8.00017778,13.6665778 C8.63706667,13.6665778 9.2224,13.5776889 9.75573333,13.3999111 L9.75573333,11.0221333 C9.75573333,9.79235556 9.32595556,9.0888 8.46684444,8.91102222 L14.0668444,8.91102222 Z" id="Fill-1" fill="#104520"></path>
                    <path d="M28.2443556,10.6888 L27.4888,15.5776889 L17.3110222,15.5776889 C18.0368,15.4150222 18.4003556,14.4888 18.4003556,12.7999111 L18.4003556,3.26657778 C18.4003556,1.77057778 18.0074667,0.9408 17.2221333,0.777688889 L22.6665778,0.777688889 C21.8665778,0.925688889 21.4665778,1.75546667 21.4665778,3.26657778 L21.4665778,13.5332444 L24.5554667,13.5332444 C25.4741333,13.5332444 26.2296889,13.2888 26.8221333,12.7999111 C27.3554667,12.3701333 27.8292444,11.6665778 28.2443556,10.6888" id="Fill-3" fill="#104520"></path>
                    <path d="M42.6666667,11.0664 L41.9333333,15.5775111 L31.7111111,15.5775111 C32.5555556,15.4148444 32.9773333,14.5335111 32.9773333,12.9330667 L32.9773333,3.24417778 C32.9773333,1.77795556 32.4888889,0.955288889 31.5106667,0.777955556 L41.6666667,0.777955556 L41.6666667,5.00017778 C41.3697778,3.51884444 40.4888889,2.77795556 39.0222222,2.77795556 L36.1333333,2.77795556 L36.1333333,7.08906667 L38.644,7.08906667 C39.6666667,7.08906667 40.2515556,6.70373333 40.3995556,5.93306667 L40.3995556,10.2441778 C40.2666667,9.48862222 39.696,9.11128889 38.6888889,9.11128889 L36.1333333,9.11128889 L36.1333333,13.5335111 L39.2222222,13.5108444 C40.1111111,13.5108444 40.8222222,13.3184 41.3555556,12.9330667 C41.8888889,12.5481778 42.3253333,11.9259556 42.6666667,11.0664" id="Fill-5" fill="#104520"></path>
                    <path d="M60.6666667,0.777777778 C59.8666667,0.940888889 59.4666667,1.75555556 59.4666667,3.22222222 L59.4666667,15.5777778 L57.1524444,15.5777778 C57.0186667,15.2226667 56.848,14.8453333 56.6404444,14.4457778 C56.1511111,13.5137778 55.5275556,12.5822222 54.7711111,11.6497778 L49.8222222,5.61733333 L49.8222222,13.1595556 C49.8222222,14.6088889 50.2813333,15.4155556 51.2,15.5777778 L46.2,15.5777778 C46.9702222,15.4151111 47.3555556,14.6 47.3555556,13.1333333 L47.3555556,3.37777778 C47.3555556,2.66666667 47.0368889,2.02977778 46.3995556,1.46666667 C46.0591111,1.15555556 45.7035556,0.925777778 45.3333333,0.777777778 L50.0444444,0.777777778 L57.0444444,9.51022222 L57.0444444,3.22177778 C57.0444444,1.75555556 56.6217778,0.940888889 55.7777778,0.777777778 L60.6666667,0.777777778 Z" id="Fill-7" fill="#104520"></path>
                    <path d="M75.2664889,11.0664 L74.5331556,15.5775111 L64.3109333,15.5775111 C65.1553778,15.4148444 65.5771556,14.5335111 65.5771556,12.9330667 L65.5771556,3.24417778 C65.5771556,1.77795556 65.0887111,0.955288889 64.1104889,0.777955556 L74.2664889,0.777955556 L74.2664889,5.00017778 C73.9696,3.51884444 73.0887111,2.77795556 71.6220444,2.77795556 L68.7331556,2.77795556 L68.7331556,7.08906667 L71.2438222,7.08906667 C72.2664889,7.08906667 72.8513778,6.70373333 72.9993778,5.93306667 L72.9993778,10.2441778 C72.8664889,9.48862222 72.2958222,9.11128889 71.2887111,9.11128889 L68.7331556,9.11128889 L68.7331556,13.5335111 L71.8220444,13.5108444 C72.7109333,13.5108444 73.4220444,13.3184 73.9553778,12.9330667 C74.4887111,12.5481778 74.9251556,11.9259556 75.2664889,11.0664" id="Fill-9" fill="#104520"></path>
                    <path d="M87.8876,10.3554667 L85.6662667,4.63146667 L83.5364889,10.3554667 L87.8876,10.3554667 Z M94.5551556,15.5776889 L88.4440444,15.5776889 C89.0809333,15.4888 89.3996,15.1479111 89.3996,14.5554667 C89.3996,14.4372444 89.2733778,14.0301333 89.0218222,13.3332444 L88.6440444,12.2888 L82.8009333,12.2888 L82.4227111,13.3110222 C82.2142667,13.8745778 82.1107111,14.2670222 82.1107111,14.4888 C82.1107111,15.1412444 82.4516,15.5039111 83.1329333,15.5776889 L78.0662667,15.5776889 C78.2733778,15.5332444 78.4884889,15.4150222 78.7107111,15.2221333 C79.2440444,14.7332444 79.7400444,13.8963556 80.1996,12.7110222 L84.8884889,0.777688889 L87.5107111,0.777688889 L92.3773778,12.7999111 C93.0587111,14.4888 93.7849333,15.4150222 94.5551556,15.5776889 L94.5551556,15.5776889 Z" id="Fill-11" fill="#104520"></path>
                    <path d="M110.9996,8.91102222 C110.169822,9.05946667 109.755156,9.7408 109.755156,10.9554667 L109.755156,15.0221333 C108.362267,15.6145778 106.577378,15.9110222 104.3996,15.9110222 C102.044044,15.9110222 100.177378,15.1479111 98.7996,13.6221333 C97.5551556,12.2443556 96.9329333,10.5408 96.9329333,8.51102222 C96.9329333,6.34791111 97.6364889,4.50391111 99.0440444,2.97768889 C100.5996,1.2888 102.703156,0.444355556 105.355156,0.444355556 C107.088489,0.444355556 108.503156,0.733244444 109.5996,1.31102222 L109.5996,5.71102222 C109.303156,4.73324444 108.732933,3.97057778 107.888489,3.42213333 C107.102711,2.90346667 106.192044,2.64435556 105.155156,2.64435556 C103.688489,2.64435556 102.510711,3.16657778 101.621822,4.21102222 C100.732933,5.25546667 100.288489,6.56302222 100.288489,8.13324444 C100.288489,9.67413333 100.703156,10.9705778 101.532933,12.0221333 C102.406711,13.1185778 103.540489,13.6665778 104.932933,13.6665778 C105.569822,13.6665778 106.155156,13.5776889 106.688489,13.3999111 L106.688489,11.0221333 C106.688489,9.79235556 106.258711,9.0888 105.3996,8.91102222 L110.9996,8.91102222 Z" id="Fill-13" fill="#104520"></path>
                    <path d="M125.177111,10.6888 L124.421556,15.5776889 L114.243778,15.5776889 C114.969556,15.4150222 115.333111,14.4888 115.333111,12.7999111 L115.333111,3.26657778 C115.333111,1.77057778 114.940222,0.9408 114.154889,0.777688889 L119.599333,0.777688889 C118.799333,0.925688889 118.399333,1.75546667 118.399333,3.26657778 L118.399333,13.5332444 L121.488222,13.5332444 C122.406889,13.5332444 123.162444,13.2888 123.754889,12.7999111 C124.288222,12.3701333 124.762,11.6665778 125.177111,10.6888" id="Fill-15" fill="#104520"></path>
                    <path d="M139.599422,11.0664 L138.866089,15.5775111 L128.643867,15.5775111 C129.488311,15.4148444 129.910089,14.5335111 129.910089,12.9330667 L129.910089,3.24417778 C129.910089,1.77795556 129.421644,0.955288889 128.443422,0.777955556 L138.599422,0.777955556 L138.599422,5.00017778 C138.302533,3.51884444 137.421644,2.77795556 135.954978,2.77795556 L133.066089,2.77795556 L133.066089,7.08906667 L135.576756,7.08906667 C136.599422,7.08906667 137.184311,6.70373333 137.332311,5.93306667 L137.332311,10.2441778 C137.199422,9.48862222 136.628756,9.11128889 135.621644,9.11128889 L133.066089,9.11128889 L133.066089,13.5335111 L136.154978,13.5108444 C137.043867,13.5108444 137.754978,13.3184 138.288311,12.9330667 C138.821644,12.5481778 139.258089,11.9259556 139.599422,11.0664" id="Fill-17" fill="#104520"></path>
                    <g id="Group-21" transform="translate(143.111111, 0.355467)">
                        <mask id="mask-2" fill="white">
                            <use xlink:href="#path-1"></use>
                        </mask>
                        <g id="Clip-20"></g>
                        <path d="M9.84377778,11.1111111 C9.84377778,12.5186667 9.32466667,13.6222222 8.28822222,14.4222222 C7.31044444,15.1777778 6.014,15.5555556 4.39933333,15.5555556 C2.73977778,15.5555556 1.33266667,15.1853333 0.177111111,14.4444444 L0.177111111,9.73333333 C0.532666667,10.9777778 1.13222222,11.9186667 1.97711111,12.5555556 C2.70288889,13.1035556 3.53977778,13.3777778 4.48777778,13.3777778 C5.16911111,13.3777778 5.73266667,13.2222222 6.17711111,12.9111111 C6.62155556,12.6 6.84377778,12.1853333 6.84377778,11.6666667 C6.84377778,11 6.47311111,10.4 5.73266667,9.86666667 C5.58422222,9.76311111 4.77711111,9.31866667 3.31044444,8.53333333 C2.34733333,8.01466667 1.64377778,7.51111111 1.19933333,7.02222222 C0.562,6.32577778 0.243333333,5.49644444 0.243333333,4.53333333 C0.243333333,3.18533333 0.721555556,2.11111111 1.67711111,1.31111111 C2.63222222,0.511111111 3.866,0.111111111 5.37666667,0.111111111 C6.75488889,0.111111111 7.91,0.444444444 8.84377778,1.11111111 L8.84377778,5.02222222 C8.54688889,4.08888889 8.03622222,3.38533333 7.31044444,2.91111111 C6.68777778,2.48177778 5.96911111,2.26666667 5.15444444,2.26666667 C4.47311111,2.26666667 3.95488889,2.42222222 3.59888889,2.73333333 C3.24333333,3.04444444 3.066,3.42222222 3.066,3.86666667 C3.066,4.59288889 3.65088889,5.26666667 4.82111111,5.88888889 C6.80644444,6.94088889 7.89533333,7.54088889 8.08822222,7.68888889 C9.25844444,8.57777778 9.84377778,9.71866667 9.84377778,11.1111111" id="Fill-19" fill="#104520" mask="url(#mask-2)"></path>
                    </g>
                </g>
            </g>
        </g>
    </g>
</svg>