<?xml version="1.0" encoding="UTF-8"?>
<svg width="16px" height="16px" viewBox="0 0 16 16" version="1.1" xmlns="http://www.w3.org/2000/svg" xmlns:xlink="http://www.w3.org/1999/xlink">
    <!-- Generator: Sketch 59.1 (86144) - https://sketch.com -->
    <title>Icons/16x16/Gift/Green400</title>
    <desc>Created with Sketch.</desc>
    <defs>
        <circle id="path-1" cx="8" cy="8" r="8"></circle>
    </defs>
    <g id="Page-1" stroke="none" stroke-width="1" fill="none" fill-rule="evenodd">
        <g id="Icons/16x16/Gift/Grey200">
            <g id="Stroke-15-Copy">
                <mask id="mask-2" fill="white">
                    <use xlink:href="#path-1"></use>
                </mask>
                <g id="Mask"></g>
            </g>
            <g id="Group" stroke="#626865">
                <rect id="Rectangle" x="0.5" y="3.5" width="15" height="3"></rect>
                <path d="M8,9.5 L14.5,9.5 L14,9 L14,10 L14.5,9.5 L8,9.5 Z M8,9.5 L1.5,9.5 L2,10 L2,9 L1.5,9.5 L8,9.5 Z" id="Rectangle" transform="translate(8.000000, 9.500000) rotate(-270.000000) translate(-8.000000, -9.500000) "></path>
                <path d="M8.57348502,3.18580497 L8.86746667,3.18580497 C8.99209996,3.18580497 9.21550064,3.18010028 9.50416785,3.16290057 C9.98506244,3.13424733 10.4654575,3.08272507 10.9106577,3.00314571 C11.7952421,2.84502659 12.4156134,2.5925283 12.6229731,2.29359915 C12.828437,1.997403 12.6141744,1.50599904 11.6671424,0.730774078 C10.7918253,0.0141530389 9.96729574,0.521293706 9.14072753,1.98916736 C8.92929534,2.36464241 8.74061295,2.76945483 8.57800272,3.17453563 C8.5764894,3.17830549 8.57498354,3.18206198 8.57348513,3.18580499 Z" id="Path" stroke-width="0.8"></path>
                <path d="M7.52113203,3.18580497 C7.51963363,3.18206196 7.51812776,3.17830548 7.51661445,3.17453563 C7.35400422,2.76945483 7.16532183,2.36464241 6.95388964,1.98916736 C6.12732143,0.521293706 5.3027919,0.0141530389 4.42745345,0.730791535 C3.48044276,1.50599904 3.26618017,1.997403 3.47164406,2.29359915 C3.67900378,2.5925283 4.29937505,2.84502659 5.1839595,3.00314571 C5.62915971,3.08272507 6.10955473,3.13424733 6.59044933,3.16290057 C6.87911653,3.18010028 7.10251721,3.18580497 7.2271505,3.18580497 L7.52113203,3.18580497 Z" id="Path" stroke-width="0.8"></path>
                <rect id="Rectangle-Copy-2" x="1.5" y="6.5" width="13" height="9"></rect>
            </g>
        </g>
    </g>
</svg>