<?xml version="1.0" encoding="UTF-8"?>
<svg width="25px" height="24px" viewBox="0 0 25 24" version="1.1" xmlns="http://www.w3.org/2000/svg" xmlns:xlink="http://www.w3.org/1999/xlink">
    <!-- Generator: Sketch 59.1 (86144) - https://sketch.com -->
    <title>Icons/24x24/Gift/Green400</title>
    <desc>Created with Sketch.</desc>
    <g id="Page-1" stroke="none" stroke-width="1" fill="none" fill-rule="evenodd">
        <g id="Icons/24x24/Gift/Green400" stroke="#104520">
            <g id="Group">
                <rect id="Rectangle" x="0.5" y="5" width="24" height="5"></rect>
                <path d="M13.2131052,4.87870745 L13.8012,4.87870745 C13.9900162,4.87870745 14.3270602,4.87010081 14.7621995,4.84417381 C15.4871601,4.80097834 16.2114962,4.72329347 16.8835826,4.60315828 C18.2353392,4.36153231 19.1854424,3.97482934 19.5166263,3.49739564 C19.8631435,2.99785739 19.5198123,2.21043903 18.0640613,1.01878499 C16.6850986,-0.110170036 15.3899655,0.686423246 14.1239563,2.93468482 C13.8044539,3.50207799 13.5196359,4.11314639 13.2742021,4.72455028 C13.252853,4.77773339 13.2324837,4.82916248 13.2131052,4.87870745 Z" id="Path"></path>
                <path d="M11.9288206,4.87870745 C11.9094421,4.82916248 11.8890727,4.77773339 11.8677236,4.72455028 C11.6222898,4.11314639 11.3374719,3.50207799 11.0179695,2.93468482 C9.75196025,0.686423246 8.45682711,-0.110170036 7.07783778,1.01880682 C5.62211341,2.21043903 5.27878224,2.99785739 5.62529949,3.49739564 C5.95648336,3.97482934 6.90658651,4.36153231 8.25834319,4.60315828 C8.9304296,4.72329347 9.65476567,4.80097834 10.3797262,4.84417381 C10.8148656,4.87010081 11.1519095,4.87870745 11.3407258,4.87870745 L11.9288206,4.87870745 Z" id="Path"></path>
                <rect id="Rectangle-Copy-2" x="2" y="10" width="21" height="13.5"></rect>
                <line x1="12.5" y1="4.5" x2="12.5" y2="23.5" id="Line" stroke-linecap="square"></line>
            </g>
        </g>
    </g>
</svg>