<?xml version="1.0" encoding="UTF-8"?>
<svg width="36px" height="30px" viewBox="0 0 36 30" version="1.1" xmlns="http://www.w3.org/2000/svg" xmlns:xlink="http://www.w3.org/1999/xlink">
    <!-- Generator: Sketch 52.6 (67491) - http://www.bohemiancoding.com/sketch -->
    <title>Quotation2/Top Copy</title>
    <desc>Created with Sketch.</desc>
    <defs>
        <polygon id="path-1" points="0.000926720225 0.5191 15.3693 0.5191 15.3693 28.8650773 0.000926720225 28.8650773"></polygon>
        <polygon id="path-3" points="0.0263267202 0.5191 15.392 0.5191 15.392 28.8650773 0.0263267202 28.8650773"></polygon>
        <polygon id="path-5" points="0.1908 0.7961 13.392 0.7961 13.392 13.9991 0.1908 13.9991"></polygon>
    </defs>
    <g id="Editorial-Module-|-No-Offer" stroke="none" stroke-width="1" fill="none" fill-rule="evenodd">
        <g id="Editorial_Type-1_Desktop" transform="translate(-1133.000000, -406.000000)">
            <g id="Pull-Quote">
                <g transform="translate(836.000000, 128.000000)">
                    <g id="Quotation2/Bottom" transform="translate(297.000000, 278.000000)">
                        <g id="Group-12" transform="translate(18.000000, 15.000000) scale(-1, -1) translate(-18.000000, -15.000000) ">
                            <g id="01">
                                <path d="M15,23.5014769 C15,27.090434 12.090434,30 8.49852306,30 C4.90956601,30 2,27.090434 2,23.5014769 C2,19.909566 4.90956601,17 8.49852306,17 C12.090434,17 15,19.909566 15,23.5014769" id="Fill-1" fill="#a2d19c"></path>
                                <g id="Group-5">
                                    <mask id="mask-2" fill="white">
                                        <use xlink:href="#path-1"></use>
                                    </mask>
                                    <g id="Clip-4"></g>
                                    <path d="M6.5733,17.83877 C6.7143,17.69667 6.9303,17.67637 7.1043,17.59517 L7.1073,17.59517 C9.4113,16.87887 12.4593,17.36027 13.9563,19.60777 C15.3183,21.78567 15.1923,24.82197 13.3113,26.82007 C11.4033,28.79207 8.4063,29.25027 5.8383,28.56877 C3.1623,27.86407 1.2573,25.54117 0.5103,23.13707 C-0.8967,18.18097 0.7623,13.03057 3.6333,9.08367 C6.5313,5.11937 10.6623,1.99607 15.3693,0.51707 C10.9173,2.54417 7.1643,5.79507 4.5843,9.70137 C2.0493,13.54967 0.5793,18.39557 1.9413,22.71367 C2.5773,24.81037 4.0893,26.69537 6.2373,27.30147 C8.3373,27.92787 10.8873,27.49867 12.4683,26.03127 C14.0583,24.58417 14.3703,21.90747 13.2993,19.98767 C12.2373,17.97797 9.4893,17.22397 7.1253,17.65897 L7.1283,17.65897 C6.9393,17.72277 6.7263,17.71697 6.5733,17.83877" id="Fill-3" fill="#a2d19c" mask="url(#mask-2)"></path>
                                </g>
                            </g>
                            <g id="02" transform="translate(20.000000, 0.000000)">
                                <mask id="mask-4" fill="white">
                                    <use xlink:href="#path-3"></use>
                                </mask>
                                <g id="Clip-10"></g>
                                <path d="M6.5987,17.83877 C6.7427,17.69667 6.9557,17.67637 7.1297,17.59517 L7.1327,17.59517 C9.4397,16.87887 12.4877,17.36027 13.9847,19.60777 C15.3437,21.78567 15.2177,24.82197 13.3397,26.82007 C11.4317,28.79207 8.4347,29.25027 5.8667,28.56877 C3.1877,27.86407 1.2857,25.54117 0.5357,23.13707 C-0.8713,18.18097 0.7877,13.03057 3.6587,9.08367 C6.5567,5.11937 10.6907,1.99607 15.3947,0.51707 C10.9457,2.54417 7.1897,5.79507 4.6097,9.70137 C2.0777,13.54967 0.6077,18.39557 1.9667,22.71367 C2.6027,24.81037 4.1177,26.69537 6.2627,27.30147 C8.3627,27.92787 10.9127,27.49867 12.4937,26.03127 C14.0837,24.58417 14.3957,21.90747 13.3247,19.98767 C12.2627,17.97797 9.5177,17.22397 7.1507,17.65897 L7.1537,17.65897 C6.9647,17.72277 6.7547,17.71697 6.5987,17.83877" id="Fill-9" fill="#a2d19c" mask="url(#mask-4)"></path>
                                <g id="Group-8" transform="translate(2.000000, 16.000000)">
                                    <mask id="mask-6" fill="white">
                                        <use xlink:href="#path-5"></use>
                                    </mask>
                                    <g id="Clip-7"></g>
                                    <path d="M13.3938,7.3991 C13.3938,11.0441 10.4388,13.9991 6.7938,13.9991 C3.1458,13.9991 0.1908,11.0441 0.1908,7.3991 C0.1908,3.7511 3.1458,0.7961 6.7938,0.7961 C10.4388,0.7961 13.3938,3.7511 13.3938,7.3991" id="Fill-6" fill="#a2d19c" mask="url(#mask-6)"></path>
                                </g>
                            </g>
                        </g>
                    </g>
                </g>
            </g>
        </g>
    </g>
</svg>
