<?xml version="1.0" encoding="UTF-8"?>
<svg width="914px" height="346px" viewBox="0 0 914 346" version="1.1" xmlns="http://www.w3.org/2000/svg" xmlns:xlink="http://www.w3.org/1999/xlink">
    <!-- Generator: Sketch 58 (84663) - https://sketch.com -->
    <title>Table</title>
    <desc>Created with Sketch.</desc>
    <g id="Lodges-For-Sale" stroke="none" stroke-width="1" fill="none" fill-rule="evenodd">
        <g id="GE-LodgesForSale-Desktop" transform="translate(-264.000000, -3873.000000)" stroke="#D3D9D3">
            <g id="Availability-02" transform="translate(0.000000, 3511.000000)">
                <g id="Table" transform="translate(264.000000, 362.000000)">
                    <g id="Lines">
                        <g id="Group-8" transform="translate(2.000000, 65.000000)" stroke-linecap="square">
                            <g id="Group-4">
                                <path d="M0,56.5 L911,56.5" id="Line-Copy"></path>
                                <path d="M0,0.5 L911,0.5" id="Line-Copy-2"></path>
                                <path d="M0,112.5 L911,112.5" id="Line-4"></path>
                                <path d="M0,168.5 L911,168.5" id="Line-4-Copy"></path>
                                <path d="M0,224.5 L911,224.5" id="Line-4-Copy-2"></path>
                            </g>
                        </g>
                        <path d="M433.833333,173 L775.833333,173" id="Line-Copy-5" stroke-linecap="square" transform="translate(604.833333, 173.000000) rotate(90.000000) translate(-604.833333, -173.000000) "></path>
                        <path d="M297.166667,173 L639.166667,173" id="Line-Copy-7" stroke-linecap="square" transform="translate(468.166667, 173.000000) rotate(90.000000) translate(-468.166667, -173.000000) "></path>
                        <path d="M160.5,173 L502.5,173" id="Line-Copy-8" stroke-linecap="square" transform="translate(331.500000, 173.000000) rotate(90.000000) translate(-331.500000, -173.000000) "></path>
                        <path d="M570.5,173 L912.5,173" id="Line-Copy-6" stroke-linecap="square" transform="translate(741.500000, 173.000000) rotate(90.000000) translate(-741.500000, -173.000000) "></path>
                        <path d="M-53,173 L289,173" id="Line-Copy-3" stroke-linecap="square" transform="translate(118.000000, 173.000000) rotate(90.000000) translate(-118.000000, -173.000000) "></path>
                        <path d="M286.843796,-270.677961 L286.843794,-270.369286 L284.150767,616.366188 L284.150767,616.673346 L284.383553,616.894812 L296.335968,628.266003 L296.578889,628.5 L614.02962,628.5 L614.274777,628.263858 L626.457738,616.673345 L626.457739,616.36467 L629.150767,-270.370804 L629.150767,-270.677962 L616.724447,-282.5 L299.270117,-282.5 L286.843796,-270.677961 Z" id="Stroke-1" transform="translate(456.650767, 173.000000) rotate(-270.000000) translate(-456.650767, -173.000000) "></path>
                    </g>
                </g>
            </g>
        </g>
    </g>
</svg>